<?xml version="1.0" standalone="no"?>
<!DOCTYPE svg PUBLIC "-//W3C//DTD SVG 20010904//EN"
 "http://www.w3.org/TR/2001/REC-SVG-20010904/DTD/svg10.dtd">
<svg version="1.0" xmlns="http://www.w3.org/2000/svg"
 width="1254.000000pt" height="1254.000000pt" viewBox="0 0 1254.000000 1254.000000"
 preserveAspectRatio="xMidYMid meet">

<g transform="translate(0.000000,1254.000000) scale(0.100000,-0.100000)"
fill="#000000" stroke="none">
<path d="M1742 10449 c-152 -30 -287 -179 -323 -356 -11 -51 -11 -75 0 -125
28 -136 78 -207 331 -458 91 -91 197 -199 235 -240 39 -41 165 -174 281 -295
280 -293 304 -319 304 -338 0 -16 -126 -123 -173 -149 -28 -14 -101 -71 -105
-80 -2 -5 -8 -8 -13 -8 -5 0 -49 -30 -97 -66 -116 -89 -123 -94 -301 -242 -85
-70 -166 -136 -180 -146 -26 -19 -233 -220 -426 -411 -144 -143 -340 -354
-435 -468 -46 -55 -94 -111 -107 -125 -14 -15 -55 -64 -91 -110 -37 -46 -104
-130 -150 -185 -46 -56 -94 -120 -107 -142 -41 -69 -65 -160 -65 -246 0 -132
47 -237 172 -381 25 -29 92 -109 148 -178 57 -69 140 -166 184 -216 45 -50
108 -122 141 -159 91 -105 495 -509 625 -625 63 -57 155 -140 204 -184 49 -45
96 -85 104 -90 9 -5 30 -22 47 -37 68 -61 412 -313 585 -429 340 -227 369
-244 610 -368 91 -46 237 -121 325 -166 88 -46 234 -113 325 -150 91 -37 179
-74 195 -81 84 -39 297 -114 520 -185 239 -75 735 -177 1000 -205 77 -8 187
-20 245 -27 66 -7 260 -12 525 -12 417 -1 502 4 855 44 194 23 553 90 781 147
56 13 72 14 97 4 17 -7 97 -83 179 -169 81 -85 191 -199 243 -251 52 -53 183
-188 289 -301 107 -113 281 -291 385 -397 228 -228 255 -245 395 -246 75 0 94
4 151 30 174 82 270 304 214 494 -35 119 -64 157 -324 429 -80 83 -257 265
-395 404 -137 139 -286 293 -330 342 -44 49 -216 226 -382 394 -166 168 -330
336 -365 375 -35 38 -142 148 -238 245 -97 96 -236 240 -310 320 -74 80 -261
273 -416 430 -155 157 -294 299 -309 315 -62 70 -282 301 -445 469 -97 100
-229 237 -295 306 -66 69 -123 127 -126 130 -3 3 -29 32 -59 65 -29 33 -128
137 -219 230 -91 94 -191 197 -221 230 -61 66 -164 175 -411 435 -91 96 -190
202 -219 235 -55 61 -136 146 -411 429 -86 89 -202 213 -259 276 -56 63 -171
185 -254 270 -83 86 -205 214 -271 285 -66 71 -186 197 -266 280 -80 82 -183
191 -229 240 -46 50 -136 144 -201 210 -137 142 -419 433 -575 595 -60 63
-150 159 -198 212 -97 107 -145 141 -244 169 -72 20 -85 21 -150 8z m1549
-2547 c41 -42 103 -109 138 -147 35 -39 177 -187 315 -330 266 -274 495 -516
560 -592 l40 -45 -12 -71 c-46 -270 -54 -523 -26 -734 16 -118 68 -344 105
-458 114 -347 351 -715 606 -942 168 -149 263 -211 479 -315 163 -77 293 -120
486 -159 133 -28 173 -32 308 -32 159 0 372 25 484 58 29 9 61 12 71 9 23 -9
377 -368 389 -394 5 -11 6 -23 2 -27 -10 -10 -226 -38 -456 -60 -126 -11 -280
-17 -485 -17 -388 0 -663 21 -960 74 -60 11 -137 24 -170 30 -33 6 -112 24
-175 41 -63 16 -141 36 -174 45 -134 34 -691 225 -745 255 -9 4 -50 22 -91 40
-96 40 -486 236 -610 307 -247 140 -437 263 -614 399 -401 307 -493 382 -681
553 -165 151 -511 499 -626 630 -46 52 -109 123 -141 158 -32 34 -58 72 -58
83 0 11 19 41 43 67 23 26 65 74 92 107 137 166 587 628 751 771 50 43 120
104 155 135 146 126 299 249 379 304 47 32 117 81 155 110 69 51 238 163 305
203 62 36 79 30 161 -56z"/>
<path d="M6045 9804 c-27 -2 -115 -8 -195 -14 -333 -24 -755 -94 -1055 -175
-55 -14 -127 -33 -160 -41 -33 -8 -78 -21 -100 -29 -22 -8 -94 -31 -160 -51
-66 -20 -127 -41 -135 -45 -8 -5 -44 -19 -80 -33 -274 -102 -310 -119 -310
-141 0 -21 222 -264 483 -528 123 -126 102 -120 272 -72 87 25 258 66 360 86
414 82 657 120 885 139 212 17 592 13 870 -9 437 -36 493 -45 990 -165 230
-55 352 -89 425 -121 17 -7 41 -16 55 -20 62 -17 308 -116 416 -166 22 -10 44
-19 48 -19 25 0 496 -247 585 -307 18 -12 56 -34 85 -49 79 -40 103 -54 226
-136 146 -96 512 -367 579 -428 9 -8 72 -62 141 -119 124 -104 153 -130 278
-246 72 -67 315 -313 414 -420 179 -192 237 -257 305 -338 40 -48 73 -94 73
-101 0 -16 -167 -203 -404 -450 -242 -254 -262 -274 -346 -345 -41 -36 -100
-88 -130 -117 -55 -53 -481 -400 -542 -442 -18 -12 -64 -46 -103 -74 -38 -28
-115 -80 -170 -115 -55 -36 -111 -73 -125 -82 -14 -10 -63 -43 -110 -74 -47
-32 -90 -61 -97 -67 -7 -5 -15 -10 -19 -10 -4 0 -21 -10 -38 -23 -17 -12 -65
-39 -106 -60 -41 -21 -136 -70 -210 -109 -74 -39 -148 -77 -165 -86 -41 -21
-65 -42 -65 -59 0 -15 15 -31 216 -242 55 -58 134 -142 174 -186 121 -131 171
-175 199 -175 38 0 413 191 462 236 8 8 19 14 24 14 5 0 25 11 44 24 20 12
110 72 200 131 164 109 196 131 371 263 229 172 300 227 375 294 189 167 255
228 345 314 52 51 132 127 178 170 72 68 178 181 382 409 166 185 269 305 392
459 114 143 142 183 165 246 53 143 33 305 -55 439 -42 65 -226 294 -280 350
-50 51 -133 147 -171 196 -18 22 -96 107 -174 189 -471 494 -891 873 -1260
1137 -27 19 -81 59 -120 89 -139 108 -155 118 -683 433 -175 104 -491 262
-628 314 -22 8 -59 23 -81 33 -22 10 -56 25 -75 34 -19 8 -53 22 -75 30 -22 8
-71 26 -110 41 -234 89 -600 199 -875 264 -42 10 -91 23 -110 29 -103 33 -341
68 -715 107 -134 14 -676 27 -780 19z"/>
<path d="M6015 8309 c-55 -4 -120 -13 -145 -20 -25 -6 -72 -17 -105 -25 -90
-20 -198 -50 -220 -61 -11 -6 -36 -16 -55 -23 -86 -30 -116 -43 -193 -80 -128
-62 -247 -137 -247 -155 0 -5 26 -37 58 -70 32 -33 115 -121 183 -195 69 -74
202 -212 295 -306 93 -94 205 -210 249 -258 44 -48 100 -109 125 -135 25 -26
104 -110 175 -186 72 -77 145 -153 164 -170 50 -44 187 -182 259 -261 155
-169 320 -342 484 -509 212 -215 293 -300 373 -391 111 -127 266 -284 375
-382 19 -17 43 -39 52 -48 21 -20 40 -8 65 40 9 17 19 33 23 36 29 21 163 260
186 332 4 13 22 55 39 93 18 39 36 81 40 95 3 14 12 41 20 60 7 19 22 76 33
125 84 371 73 690 -36 1055 -33 111 -66 190 -138 333 -66 129 -160 265 -285
412 -117 137 -188 199 -394 345 -89 63 -328 190 -358 190 -9 0 -19 4 -22 10
-3 5 -32 17 -63 26 -31 9 -61 20 -67 24 -5 4 -30 12 -55 18 -25 6 -63 17 -85
26 -22 8 -52 15 -66 16 -15 0 -44 6 -66 14 -88 31 -377 43 -598 25z m1340
-1230 c87 -44 180 -130 216 -201 57 -112 72 -233 43 -336 -44 -156 -125 -256
-262 -323 -87 -43 -87 -43 -202 -43 -124 -1 -200 17 -294 70 -206 115 -279
443 -144 649 43 67 104 131 142 151 144 76 185 86 331 78 80 -5 99 -10 170
-45z"/>
</g>
</svg>
