<?xml version="1.0" standalone="no"?>
<!DOCTYPE svg PUBLIC "-//W3C//DTD SVG 20010904//EN"
 "http://www.w3.org/TR/2001/REC-SVG-20010904/DTD/svg10.dtd">
<svg version="1.0" xmlns="http://www.w3.org/2000/svg"
 width="1254.000000pt" height="1254.000000pt" viewBox="0 0 1254.000000 1254.000000"
 preserveAspectRatio="xMidYMid meet">

<g transform="translate(0.000000,1254.000000) scale(0.100000,-0.100000)"
fill="#000000" stroke="none">
<path d="M836 12129 c-38 -5 -89 -16 -113 -24 -24 -8 -49 -15 -56 -15 -7 0
-23 -6 -37 -13 -14 -8 -40 -19 -58 -25 -90 -31 -261 -174 -326 -273 -57 -86
-62 -94 -83 -144 -45 -106 -54 -132 -70 -210 -16 -72 -18 -168 -21 -969 l-2
-889 22 -65 c56 -168 257 -263 429 -203 124 42 203 118 237 224 14 46 16 157
21 892 l6 840 32 46 c18 25 52 59 75 75 l43 29 830 3 c795 3 831 4 888 23 32
11 75 30 95 43 93 60 162 181 162 285 0 55 -33 177 -55 201 -8 9 -15 20 -15
24 0 19 -99 101 -149 125 l-56 26 -865 1 c-476 1 -896 -2 -934 -7z"/>
<path d="M9919 12130 c-95 -16 -186 -83 -238 -174 -49 -85 -51 -280 -4 -366
21 -39 76 -97 118 -125 76 -50 52 -49 961 -55 l851 -5 41 -28 c22 -16 53 -47
69 -70 l28 -42 5 -855 c4 -658 8 -860 18 -877 6 -12 12 -30 13 -40 1 -29 61
-104 113 -141 62 -43 145 -72 209 -72 56 0 180 35 198 56 6 8 16 14 21 14 12
0 58 47 83 85 50 76 49 56 50 1030 0 850 -1 916 -19 995 -10 47 -24 94 -32
105 -8 11 -14 28 -14 38 0 10 -9 30 -20 44 -11 14 -20 33 -20 43 0 9 -9 25
-20 35 -11 10 -20 23 -20 28 0 6 -7 17 -15 26 -52 56 -158 161 -189 186 -42
34 -213 125 -236 125 -8 0 -27 7 -43 15 -58 30 -213 35 -1039 34 -453 -1 -844
-5 -869 -9z"/>
<path d="M5945 9793 c-433 -35 -521 -45 -740 -84 -261 -47 -467 -94 -705 -163
-68 -20 -149 -46 -180 -57 -30 -11 -129 -47 -220 -79 -262 -92 -335 -122 -515
-210 -77 -37 -178 -86 -225 -109 -47 -22 -96 -47 -110 -55 -14 -8 -47 -25 -75
-37 -54 -25 -142 -76 -247 -145 -37 -24 -70 -44 -73 -44 -3 0 -31 -16 -61 -35
-30 -19 -56 -35 -58 -35 -10 0 -266 -177 -370 -256 -65 -49 -139 -105 -166
-124 -26 -19 -65 -49 -86 -67 -22 -17 -103 -82 -181 -143 -167 -130 -749 -681
-863 -815 -18 -22 -61 -69 -94 -105 -132 -142 -173 -187 -221 -245 -27 -33
-71 -82 -97 -110 -26 -27 -70 -79 -97 -115 -28 -36 -57 -72 -64 -80 -8 -8 -39
-49 -69 -90 -31 -41 -66 -86 -78 -98 -13 -13 -33 -53 -46 -89 -53 -145 -22
-253 124 -439 128 -164 274 -343 322 -394 23 -25 61 -67 83 -95 42 -51 57 -68
212 -240 126 -139 508 -517 680 -672 101 -90 625 -506 713 -565 15 -10 52 -35
83 -55 31 -21 67 -45 80 -54 39 -27 172 -113 194 -125 11 -7 133 -77 270 -156
228 -131 377 -209 540 -283 33 -15 97 -45 143 -66 46 -22 86 -39 89 -39 5 0
42 -15 148 -61 56 -24 177 -68 230 -83 33 -10 137 -42 230 -71 205 -65 280
-86 405 -114 384 -87 578 -118 855 -141 66 -6 172 -15 237 -20 416 -35 1214
24 1543 115 28 8 68 17 90 20 88 14 293 68 435 114 47 16 132 43 190 61 58 18
110 36 115 40 6 4 31 13 58 20 26 7 50 17 53 21 3 5 12 9 21 9 8 0 41 11 72
24 31 13 81 34 111 46 138 56 628 291 665 320 13 9 100 58 140 78 17 8 37 20
45 27 8 7 56 34 105 60 50 26 97 54 106 61 8 8 18 14 21 14 10 0 223 143 226
152 2 4 9 8 15 8 6 0 31 17 56 38 25 21 66 51 91 66 25 15 59 37 75 49 100 72
141 103 150 112 6 6 21 18 35 27 14 9 53 38 87 64 34 27 71 56 84 64 19 13
155 129 199 170 9 8 43 38 75 65 205 173 566 528 754 740 68 77 156 176 196
220 103 114 137 155 171 200 16 21 37 47 46 56 35 37 210 261 244 316 34 52
37 64 42 148 7 136 -6 166 -151 348 -66 84 -145 179 -176 212 -31 33 -92 103
-136 154 -168 199 -638 680 -825 845 -175 156 -339 296 -344 296 -3 0 -18 12
-33 26 -15 14 -68 57 -118 94 -49 37 -118 90 -152 116 -75 60 -178 135 -258
190 -33 22 -82 56 -108 75 -60 42 -175 116 -202 130 -11 5 -36 20 -57 32 -86
52 -205 123 -233 138 -16 9 -57 33 -90 53 -81 48 -537 273 -655 324 -225 95
-297 122 -525 192 -71 22 -157 49 -190 59 -243 76 -323 95 -570 140 -60 11
-130 24 -155 29 -25 6 -74 13 -110 17 -36 4 -81 11 -100 15 -32 9 -233 28
-510 50 -106 9 -523 11 -615 3z m584 -863 c314 -20 540 -48 746 -91 424 -88
880 -227 1053 -319 20 -11 40 -20 45 -20 20 0 497 -233 565 -276 29 -19 55
-34 58 -34 3 0 18 -8 32 -19 15 -10 68 -40 117 -66 138 -73 449 -283 638 -431
29 -22 111 -85 182 -139 146 -110 163 -125 290 -240 50 -45 135 -122 190 -172
327 -297 805 -803 805 -853 0 -9 -12 -30 -27 -47 -298 -335 -600 -647 -848
-874 -33 -30 -78 -72 -100 -93 -56 -52 -350 -290 -519 -419 -163 -126 -519
-364 -686 -459 -113 -64 -287 -156 -445 -236 -102 -51 -394 -182 -406 -182 -6
0 -29 -8 -52 -19 -256 -114 -761 -253 -1122 -310 -270 -42 -456 -56 -780 -56
-326 0 -451 9 -805 61 -234 33 -466 86 -645 145 -33 10 -100 32 -150 48 -370
120 -745 280 -1024 439 -74 42 -147 83 -163 91 -78 43 -207 122 -403 249 -176
114 -502 365 -690 532 -66 58 -156 137 -200 175 -253 219 -895 907 -895 959 0
18 114 163 218 276 48 52 207 217 355 365 256 257 440 426 662 604 55 44 132
106 172 138 341 275 914 618 1353 810 181 79 219 94 515 196 85 30 231 74 265
80 14 3 77 18 140 35 63 16 133 32 155 36 22 4 81 15 130 25 382 80 890 116
1274 91z"/>
<path d="M6025 8309 c-55 -4 -120 -13 -145 -20 -25 -6 -72 -17 -105 -25 -90
-20 -198 -50 -220 -61 -11 -6 -36 -16 -55 -23 -168 -59 -272 -112 -430 -219
-190 -128 -396 -328 -518 -503 -193 -277 -287 -495 -354 -823 -20 -96 -23
-141 -23 -345 0 -251 10 -335 62 -550 40 -165 140 -401 233 -549 95 -150 304
-386 445 -501 313 -256 689 -415 1087 -461 161 -18 429 -7 599 25 137 26 276
61 359 91 156 57 477 247 615 365 120 102 322 325 390 430 59 90 144 251 161
302 4 13 22 55 39 93 18 39 36 81 40 95 3 14 12 41 20 60 7 19 22 76 33 125
84 371 73 690 -36 1055 -33 111 -66 190 -138 333 -66 129 -160 265 -285 412
-117 137 -188 199 -394 345 -89 63 -328 190 -358 190 -9 0 -19 4 -22 10 -3 5
-32 17 -63 26 -31 9 -61 20 -67 24 -5 4 -30 12 -55 18 -25 6 -63 17 -85 26
-22 8 -52 15 -66 16 -15 0 -44 6 -66 14 -88 31 -377 43 -598 25z m1340 -1230
c87 -44 180 -130 216 -201 57 -112 72 -233 43 -336 -44 -156 -125 -256 -262
-323 -87 -43 -87 -43 -202 -43 -124 -1 -200 17 -294 70 -206 115 -279 443
-144 649 43 67 104 131 142 151 144 76 185 86 331 78 80 -5 99 -10 170 -45z"/>
<path d="M385 3244 c-95 -21 -153 -47 -193 -86 -58 -59 -92 -103 -92 -121 0
-8 -7 -31 -15 -51 -23 -55 -17 -1807 7 -1909 9 -37 20 -73 25 -80 6 -6 16 -29
22 -49 7 -21 23 -57 37 -80 13 -24 29 -54 36 -68 18 -34 31 -49 129 -150 47
-48 99 -94 115 -103 148 -79 212 -102 357 -127 113 -19 161 -20 940 -20 787 0
825 1 884 20 113 35 168 74 217 154 24 37 56 156 56 203 0 45 -32 152 -57 190
-30 47 -106 113 -131 113 -7 0 -27 8 -45 18 -30 16 -98 17 -894 22 l-861 5
-39 31 c-21 17 -51 50 -68 73 l-30 43 -6 831 c-6 915 -5 895 -68 989 -41 61
-101 108 -165 129 -57 19 -131 29 -161 23z"/>
<path d="M12045 3244 c-11 -3 -34 -12 -52 -20 -17 -8 -36 -14 -43 -14 -20 0
-99 -71 -131 -119 -66 -97 -63 -52 -69 -978 l-5 -841 -30 -43 c-16 -23 -47
-56 -68 -73 l-39 -31 -856 -5 c-795 -5 -859 -6 -882 -22 -13 -10 -30 -18 -38
-18 -17 0 -80 -47 -112 -84 -14 -16 -36 -55 -50 -85 -21 -48 -25 -70 -24 -156
0 -89 4 -106 28 -150 50 -93 124 -155 217 -182 46 -13 175 -16 881 -20 803 -4
831 -4 951 17 145 24 277 70 343 119 12 9 32 23 44 31 52 36 170 164 215 235
55 86 88 176 113 305 14 74 17 198 20 960 3 875 3 875 -19 943 -42 130 -170
224 -318 233 -31 1 -65 1 -76 -2z"/>
</g>
</svg>
