<?xml version="1.0" standalone="no"?>
<!DOCTYPE svg PUBLIC "-//W3C//DTD SVG 20010904//EN"
 "http://www.w3.org/TR/2001/REC-SVG-20010904/DTD/svg10.dtd">
<svg version="1.0" xmlns="http://www.w3.org/2000/svg"
 width="1672.000000pt" height="1672.000000pt" viewBox="0 0 1672.000000 1672.000000"
 preserveAspectRatio="xMidYMid meet">

<g transform="translate(0.000000,1672.000000) scale(0.100000,-0.100000)"
fill="#000000" stroke="none">
<path d="M8090 15139 c-869 -90 -1648 -623 -2050 -1403 -154 -297 -246 -610
-280 -945 -14 -142 -14 -4540 0 -4682 70 -703 418 -1344 968 -1786 802 -645
1911 -756 2828 -283 788 406 1316 1184 1404 2069 14 142 14 4540 0 4682 -61
610 -322 1160 -756 1593 -433 434 -983 695 -1593 756 -121 12 -399 11 -521 -1z
m418 -1039 c624 -66 1142 -477 1336 -1060 66 -199 86 -345 86 -637 l0 -193
-202 -1 c-680 -2 -722 -6 -847 -76 -87 -48 -132 -92 -169 -160 -45 -86 -62
-155 -62 -252 0 -202 92 -396 225 -480 170 -108 298 -123 851 -102 94 3 179 5
188 3 14 -3 16 -34 16 -308 l0 -304 -202 -1 c-680 -2 -722 -6 -847 -76 -87
-48 -132 -92 -169 -160 -45 -86 -62 -155 -62 -252 0 -202 92 -396 225 -480
170 -108 298 -123 851 -102 94 3 179 5 188 3 15 -3 16 -55 16 -580 0 -702 -7
-784 -86 -1022 -153 -460 -524 -831 -984 -984 -404 -134 -830 -104 -1204 85
-483 244 -798 705 -856 1251 -13 126 -13 4350 0 4476 58 546 373 1007 856
1251 262 133 570 191 852 161z"/>
<path d="M12413 8866 c-162 -40 -308 -172 -365 -333 -16 -46 -23 -105 -34
-297 -8 -131 -21 -293 -29 -359 -159 -1213 -935 -2283 -2040 -2813 -446 -213
-889 -326 -1385 -353 -206 -11 -182 -11 -392 0 -503 26 -943 138 -1393 353
-1104 529 -1882 1601 -2039 2812 -13 97 -36 393 -36 467 0 16 -31 17 -520 17
l-520 0 0 -107 c0 -125 22 -387 45 -551 63 -448 182 -858 367 -1270 469 -1044
1316 -1891 2360 -2360 429 -193 910 -327 1351 -378 l57 -6 0 -539 0 -539 -815
0 c-556 0 -831 -4 -867 -11 -189 -39 -358 -208 -397 -397 -37 -179 13 -348
143 -478 77 -77 159 -123 254 -143 76 -16 4328 -16 4404 0 189 39 358 208 397
397 37 179 -13 348 -143 478 -77 77 -159 123 -254 143 -36 7 -311 11 -867 11
l-815 0 0 539 0 539 58 6 c440 51 921 185 1350 378 1044 469 1891 1316 2360
2360 185 412 304 822 367 1270 41 286 57 659 34 770 -20 95 -66 177 -143 254
-132 132 -313 183 -493 140z"/>
</g>
</svg>
