<?xml version="1.0" standalone="no"?>
<!DOCTYPE svg PUBLIC "-//W3C//DTD SVG 20010904//EN"
 "http://www.w3.org/TR/2001/REC-SVG-20010904/DTD/svg10.dtd">
<svg version="1.0" xmlns="http://www.w3.org/2000/svg"
 width="1672.000000pt" height="1672.000000pt" viewBox="0 0 1672.000000 1672.000000"
 preserveAspectRatio="xMidYMid meet">

<g transform="translate(0.000000,1672.000000) scale(0.100000,-0.100000)"
fill="#000000" stroke="none">
<path d="M8090 15139 c-216 -23 -475 -86 -676 -164 -844 -331 -1465 -1085
-1623 -1968 -35 -196 -41 -308 -41 -811 l0 -491 518 -547 517 -548 5 1053 c6
1148 4 1101 66 1314 121 418 409 764 800 962 441 223 967 223 1408 0 370 -187
651 -512 780 -899 66 -199 86 -345 86 -637 l0 -193 -202 -1 c-680 -2 -722 -6
-847 -76 -87 -48 -132 -92 -169 -160 -45 -86 -62 -155 -62 -252 0 -202 92
-396 225 -480 170 -108 298 -123 851 -102 94 3 179 5 188 3 14 -3 16 -34 16
-308 l0 -304 -202 -1 c-680 -2 -722 -6 -847 -76 -87 -48 -132 -92 -169 -160
-45 -86 -62 -155 -62 -252 0 -202 92 -396 225 -480 170 -108 298 -123 851
-102 94 3 179 5 188 3 15 -3 16 -55 16 -580 0 -317 -5 -619 -10 -670 -21 -202
-76 -387 -166 -566 -30 -59 -54 -112 -52 -116 2 -4 165 -179 363 -389 l360
-381 18 23 c59 75 178 266 237 379 154 299 246 611 280 947 14 142 14 4540 0
4682 -61 610 -322 1160 -756 1593 -433 434 -983 695 -1593 756 -121 12 -399
11 -521 -1z"/>
<path d="M3120 13351 c-94 -30 -142 -61 -220 -140 -90 -91 -149 -201 -176
-327 -15 -74 -15 -86 -1 -157 37 -182 102 -272 456 -632 247 -250 540 -556
1430 -1489 189 -199 403 -422 475 -496 72 -74 212 -221 310 -325 99 -105 219
-230 268 -280 l88 -90 0 -601 c0 -614 5 -720 41 -921 141 -789 655 -1483 1373
-1853 572 -296 1220 -368 1850 -208 l118 30 43 -43 c172 -177 725 -762 725
-768 0 -17 -226 -110 -425 -174 -297 -96 -585 -148 -915 -166 -206 -11 -182
-11 -392 0 -503 26 -943 138 -1393 353 -1104 529 -1882 1601 -2039 2812 -13
97 -36 393 -36 467 0 16 -31 17 -520 17 l-520 0 0 -107 c0 -125 22 -387 45
-551 63 -448 182 -858 367 -1270 469 -1044 1316 -1891 2360 -2360 429 -193
910 -327 1351 -378 l57 -6 0 -539 0 -539 -815 0 c-556 0 -831 -4 -867 -11
-189 -39 -358 -208 -397 -397 -37 -179 13 -348 143 -478 77 -77 159 -123 254
-143 76 -16 4328 -16 4404 0 189 39 358 208 397 397 37 179 -13 348 -143 478
-77 77 -159 123 -254 143 -36 7 -311 11 -867 11 l-815 0 0 539 0 539 58 6
c533 61 1114 243 1610 504 l113 60 108 -112 c59 -61 241 -251 405 -423 163
-171 334 -343 379 -381 45 -39 111 -101 147 -138 35 -38 197 -206 360 -374
162 -168 448 -465 635 -659 397 -413 523 -530 615 -575 62 -30 71 -31 190 -31
120 0 128 1 194 33 132 62 250 211 291 367 23 88 21 215 -6 300 -55 180 -87
218 -803 950 -216 220 -477 490 -581 600 -104 110 -318 331 -475 490 -323 329
-1183 1214 -1340 1380 -57 61 -287 297 -510 525 -223 229 -472 488 -555 575
-82 88 -330 347 -551 575 -220 228 -452 471 -516 540 -63 69 -202 215 -309
325 -194 200 -895 941 -1129 1195 -69 73 -247 260 -396 415 -148 154 -326 340
-395 414 -257 278 -439 471 -1064 1126 -115 121 -257 269 -315 330 -57 60
-337 351 -620 645 -284 294 -583 607 -666 695 -188 199 -219 227 -292 264
-120 61 -240 75 -342 42z m4387 -5784 c390 -408 713 -748 717 -756 18 -29
-198 10 -364 65 -543 180 -951 658 -1044 1222 -16 99 -28 212 -21 212 2 0 323
-334 712 -743z"/>
<path d="M12413 8866 c-162 -40 -308 -172 -365 -333 -16 -46 -23 -105 -34
-297 -15 -255 -33 -418 -65 -580 -116 -585 -358 -1105 -738 -1587 l-60 -76
356 -377 c196 -207 359 -376 363 -376 23 0 283 332 407 520 349 527 592 1124
703 1727 66 358 100 837 69 985 -39 189 -208 358 -397 397 -68 14 -173 13
-239 -3z"/>
</g>
</svg>
