<svg id="svg" version="1.1" width="400" height="157.66273705791903" viewBox="0 0 400 157.66273705791903" xmlns="http://www.w3.org/2000/svg" xmlns:xlink="http://www.w3.org/1999/xlink"><g id="svgg"><path id="path0" d="M191.708 22.778 C 191.319 22.819,191.000 22.921,191.000 23.005 C 191.000 23.090,190.775 23.113,190.500 23.058 C 190.215 23.001,190.000 23.029,190.000 23.123 C 190.000 23.213,189.794 23.254,189.542 23.214 C 189.213 23.161,189.148 23.186,189.313 23.302 C 189.484 23.421,189.365 23.494,188.855 23.580 C 188.476 23.644,188.167 23.762,188.167 23.843 C 188.167 23.923,188.054 23.946,187.917 23.894 C 187.779 23.841,187.667 23.885,187.667 23.992 C 187.667 24.099,187.592 24.140,187.500 24.083 C 187.408 24.027,187.333 24.060,187.333 24.157 C 187.333 24.254,187.259 24.333,187.168 24.333 C 186.883 24.333,185.667 24.905,185.667 25.039 C 185.667 25.109,185.554 25.167,185.417 25.167 C 185.279 25.167,185.167 25.242,185.167 25.333 C 185.167 25.425,185.052 25.500,184.911 25.500 C 184.771 25.500,184.611 25.617,184.557 25.760 C 184.502 25.902,184.368 25.985,184.260 25.944 C 184.152 25.902,183.918 26.084,183.741 26.347 C 183.563 26.611,183.202 26.916,182.937 27.026 C 182.672 27.136,182.244 27.559,181.985 27.967 C 181.727 28.374,181.362 28.815,181.174 28.947 C 180.987 29.078,180.833 29.286,180.833 29.408 C 180.833 29.531,180.721 29.674,180.583 29.727 C 180.446 29.780,180.333 29.930,180.333 30.060 C 180.333 30.191,180.216 30.343,180.073 30.398 C 179.929 30.453,179.854 30.565,179.905 30.648 C 179.956 30.731,179.893 30.839,179.765 30.888 C 179.636 30.937,179.482 31.201,179.422 31.475 C 179.362 31.749,179.180 32.126,179.018 32.312 C 178.856 32.499,178.624 33.065,178.503 33.570 C 178.378 34.093,178.211 34.444,178.117 34.386 C 178.013 34.322,177.993 34.449,178.062 34.725 C 178.131 34.999,178.105 35.167,177.993 35.167 C 177.894 35.167,177.834 35.298,177.860 35.458 C 177.887 35.619,177.863 35.825,177.807 35.917 C 177.751 36.008,177.652 36.477,177.587 36.958 L 177.469 37.833 180.294 37.833 L 183.120 37.833 183.222 36.971 C 183.279 36.497,183.411 36.055,183.517 35.990 C 183.623 35.924,183.658 35.787,183.595 35.685 C 183.532 35.583,183.554 35.500,183.644 35.500 C 183.734 35.500,183.894 35.237,184.000 34.917 C 184.106 34.596,184.259 34.333,184.341 34.333 C 184.423 34.333,184.446 34.221,184.394 34.083 C 184.341 33.946,184.379 33.833,184.478 33.833 C 184.577 33.833,184.773 33.612,184.912 33.342 C 185.052 33.071,185.610 32.415,186.152 31.883 C 187.616 30.448,187.944 30.167,188.154 30.167 C 188.258 30.167,188.387 30.054,188.440 29.917 C 188.492 29.779,188.715 29.667,188.934 29.667 C 189.154 29.667,189.333 29.595,189.333 29.507 C 189.333 29.419,189.633 29.257,190.000 29.147 C 190.367 29.037,190.667 28.886,190.667 28.812 C 190.667 28.738,190.787 28.723,190.933 28.780 C 191.080 28.836,191.265 28.777,191.344 28.649 C 191.458 28.465,192.078 28.417,194.333 28.417 C 196.588 28.417,197.208 28.465,197.322 28.649 C 197.402 28.777,197.586 28.836,197.733 28.780 C 197.880 28.723,198.000 28.740,198.000 28.818 C 198.000 28.895,198.216 29.002,198.480 29.054 C 198.744 29.107,199.083 29.274,199.234 29.425 C 199.385 29.576,199.617 29.657,199.750 29.607 C 199.887 29.554,200.101 29.671,200.245 29.877 C 200.385 30.077,200.500 30.174,200.500 30.091 C 200.500 30.009,200.674 30.106,200.887 30.306 C 201.100 30.506,201.309 30.636,201.350 30.594 C 201.392 30.552,201.574 30.740,201.755 31.010 C 201.935 31.281,202.211 31.543,202.366 31.593 C 202.522 31.643,202.694 31.823,202.748 31.994 C 202.802 32.164,203.031 32.424,203.256 32.572 C 203.482 32.720,203.667 32.948,203.667 33.079 C 203.667 33.210,203.767 33.377,203.889 33.450 C 204.115 33.586,204.667 34.594,204.667 34.871 C 204.667 34.955,204.777 35.134,204.912 35.269 C 205.046 35.403,205.249 35.960,205.362 36.507 C 205.474 37.053,205.608 37.500,205.658 37.500 C 205.709 37.500,205.750 38.512,205.750 39.750 C 205.750 40.987,205.685 42.000,205.606 42.000 C 205.526 42.000,205.497 42.188,205.541 42.417 C 205.585 42.646,205.556 42.833,205.477 42.833 C 205.398 42.833,205.333 42.965,205.333 43.125 C 205.334 43.543,204.138 45.875,203.792 46.134 C 203.631 46.254,203.500 46.433,203.500 46.532 C 203.500 46.692,203.284 46.951,202.526 47.696 C 202.403 47.817,202.105 48.123,201.864 48.375 C 201.623 48.627,201.333 48.833,201.219 48.833 C 201.105 48.833,200.935 48.976,200.842 49.150 C 200.749 49.324,200.333 49.582,199.917 49.724 C 199.501 49.866,199.051 50.091,198.917 50.226 C 198.783 50.360,198.372 50.521,198.003 50.583 C 197.635 50.645,197.333 50.762,197.333 50.844 C 197.333 50.925,197.097 50.944,196.807 50.886 C 196.431 50.811,196.315 50.836,196.401 50.974 C 196.488 51.116,195.968 51.167,194.427 51.167 C 193.039 51.167,192.333 51.106,192.333 50.987 C 192.333 50.874,192.148 50.848,191.833 50.917 C 191.495 50.991,191.333 50.962,191.333 50.827 C 191.333 50.710,191.196 50.664,191.000 50.715 C 190.817 50.763,190.667 50.740,190.667 50.664 C 190.667 50.589,190.442 50.477,190.167 50.417 C 189.892 50.356,189.667 50.251,189.667 50.183 C 189.667 50.115,189.281 49.885,188.809 49.672 C 188.337 49.458,187.819 49.164,187.659 49.017 C 186.429 47.890,185.167 46.622,185.167 46.513 C 185.167 46.441,184.978 46.178,184.747 45.929 C 184.517 45.681,184.371 45.407,184.424 45.322 C 184.477 45.236,184.446 45.167,184.356 45.167 C 184.266 45.167,184.106 44.904,184.000 44.583 C 183.894 44.262,183.741 44.000,183.659 44.000 C 183.577 44.000,183.554 43.887,183.606 43.750 C 183.659 43.612,183.622 43.500,183.524 43.500 C 183.425 43.500,183.295 43.125,183.234 42.667 L 183.124 41.833 180.312 41.833 L 177.500 41.833 177.504 47.958 C 177.509 54.668,177.566 55.204,178.372 56.021 C 178.955 56.612,181.333 57.003,181.333 56.508 C 181.333 56.401,181.408 56.360,181.500 56.417 C 181.592 56.473,181.667 56.440,181.667 56.343 C 181.667 56.246,181.781 56.167,181.920 56.167 C 182.060 56.167,182.259 55.979,182.364 55.750 C 182.468 55.521,182.621 55.333,182.703 55.333 C 182.786 55.333,182.810 55.264,182.757 55.178 C 182.704 55.093,182.737 54.976,182.831 54.918 C 182.924 54.861,183.000 54.293,183.000 53.657 C 183.000 52.422,183.132 52.251,183.568 52.917 C 183.718 53.146,183.935 53.333,184.050 53.333 C 184.165 53.333,184.383 53.465,184.535 53.625 C 184.890 54.001,185.397 54.424,185.450 54.390 C 185.553 54.323,186.167 54.551,186.167 54.655 C 186.167 54.787,187.254 55.333,187.518 55.333 C 187.613 55.333,187.794 55.437,187.921 55.564 C 188.048 55.690,188.642 55.892,189.242 56.011 C 189.842 56.130,190.333 56.298,190.333 56.383 C 190.333 56.469,190.483 56.500,190.667 56.452 C 190.850 56.404,191.045 56.438,191.100 56.527 C 191.155 56.616,191.451 56.668,191.758 56.641 C 192.065 56.615,192.369 56.647,192.436 56.713 C 192.604 56.882,196.628 56.864,196.733 56.694 C 196.780 56.618,197.047 56.589,197.326 56.630 C 197.637 56.676,197.833 56.631,197.833 56.516 C 197.833 56.398,197.989 56.366,198.250 56.432 C 198.479 56.489,198.667 56.468,198.667 56.386 C 198.667 56.303,199.117 56.136,199.667 56.014 C 200.217 55.892,200.667 55.718,200.667 55.628 C 200.667 55.538,200.779 55.508,200.917 55.560 C 201.054 55.613,201.167 55.600,201.167 55.531 C 201.167 55.463,201.542 55.261,202.000 55.083 C 202.458 54.905,202.833 54.710,202.833 54.649 C 202.833 54.589,202.965 54.497,203.125 54.446 C 203.565 54.307,204.399 53.777,204.550 53.542 C 204.623 53.427,204.770 53.333,204.877 53.333 C 204.984 53.333,205.261 53.143,205.494 52.911 C 205.726 52.679,206.198 52.259,206.542 51.977 C 206.885 51.696,207.167 51.369,207.167 51.252 C 207.167 51.134,207.354 50.915,207.583 50.765 C 207.813 50.615,208.000 50.382,208.000 50.248 C 208.000 50.113,208.150 49.909,208.333 49.795 C 208.517 49.680,208.667 49.503,208.667 49.401 C 208.667 49.299,208.846 49.022,209.065 48.785 C 209.285 48.548,209.595 48.012,209.755 47.594 C 209.915 47.176,210.119 46.833,210.209 46.833 C 210.299 46.833,210.333 46.683,210.285 46.500 C 210.237 46.317,210.259 46.167,210.335 46.167 C 210.410 46.167,210.606 45.585,210.771 44.875 C 210.935 44.165,211.140 43.535,211.225 43.475 C 211.311 43.416,211.340 43.210,211.290 43.017 C 211.239 42.825,211.266 42.625,211.349 42.574 C 211.560 42.444,211.544 37.047,211.333 36.916 C 211.241 36.859,211.213 36.622,211.272 36.389 C 211.331 36.155,211.310 35.916,211.227 35.857 C 211.143 35.798,210.933 35.150,210.760 34.417 C 210.587 33.683,210.357 33.008,210.249 32.917 C 210.140 32.825,209.950 32.469,209.826 32.125 C 209.701 31.781,209.542 31.500,209.472 31.500 C 209.401 31.500,209.387 31.387,209.440 31.250 C 209.492 31.113,209.449 31.000,209.342 31.000 C 209.236 31.000,209.070 30.773,208.974 30.496 C 208.877 30.220,208.656 29.917,208.482 29.824 C 208.309 29.731,208.167 29.547,208.167 29.415 C 208.167 29.282,207.982 29.053,207.756 28.906 C 207.531 28.758,207.303 28.499,207.249 28.331 C 207.137 27.977,206.179 27.000,205.944 27.000 C 205.857 27.000,205.528 26.719,205.215 26.375 C 204.901 26.031,204.693 25.863,204.753 26.000 C 204.813 26.137,204.725 26.092,204.556 25.898 C 204.388 25.704,204.006 25.442,203.708 25.316 C 203.410 25.189,203.167 25.024,203.167 24.949 C 203.167 24.875,203.100 24.855,203.017 24.906 C 202.935 24.957,202.828 24.893,202.779 24.765 C 202.729 24.636,202.459 24.481,202.178 24.419 C 201.897 24.357,201.667 24.230,201.667 24.136 C 201.667 24.041,201.554 24.008,201.417 24.060 C 201.279 24.113,201.167 24.090,201.167 24.010 C 201.167 23.930,200.792 23.768,200.333 23.651 C 199.875 23.533,199.500 23.371,199.500 23.291 C 199.500 23.210,199.350 23.192,199.167 23.250 C 198.962 23.315,198.833 23.280,198.833 23.160 C 198.833 23.036,198.685 23.001,198.430 23.065 C 198.188 23.126,198.002 23.088,197.963 22.971 C 197.895 22.770,193.180 22.625,191.708 22.778 " stroke="none" fill="#59d4ed" fill-rule="evenodd"></path><path id="path1" d="M212.917 0.080 C 212.825 0.110,212.363 0.253,211.890 0.399 C 211.094 0.644,210.587 1.047,209.489 2.306 C 209.133 2.714,208.667 3.914,208.667 4.420 C 208.667 4.647,208.592 4.833,208.500 4.833 C 208.408 4.833,208.333 5.208,208.333 5.667 C 208.333 6.125,208.408 6.500,208.500 6.500 C 208.592 6.500,208.668 6.669,208.669 6.875 C 208.672 7.339,209.065 8.496,209.269 8.642 C 209.352 8.701,209.559 9.016,209.729 9.340 C 211.498 12.716,218.290 11.898,219.622 8.149 C 219.781 7.700,219.969 7.333,220.039 7.333 C 220.109 7.333,220.167 6.621,220.167 5.750 C 220.167 4.879,220.107 4.167,220.035 4.167 C 219.962 4.167,219.763 3.758,219.594 3.259 C 219.424 2.759,219.182 2.311,219.057 2.263 C 218.931 2.215,218.756 1.986,218.668 1.754 C 218.580 1.523,218.398 1.333,218.264 1.333 C 218.129 1.333,217.921 1.195,217.801 1.026 C 217.296 0.313,214.108 -0.304,212.917 0.080 M193.833 2.667 C 193.833 2.758,193.714 2.833,193.567 2.833 C 193.131 2.833,192.328 3.367,191.499 4.208 C 191.071 4.644,190.662 5.000,190.592 5.000 C 190.522 5.000,190.079 5.371,189.607 5.825 C 187.332 8.016,186.802 8.500,186.683 8.500 C 186.326 8.500,183.982 11.120,183.808 11.713 C 183.378 13.181,184.316 15.833,185.266 15.833 C 185.381 15.833,185.600 15.957,185.751 16.108 C 186.064 16.421,188.286 16.508,188.475 16.214 C 188.535 16.121,188.745 15.994,188.943 15.933 C 189.141 15.871,189.591 15.524,189.943 15.160 C 190.295 14.797,190.641 14.500,190.712 14.500 C 190.783 14.500,191.198 14.125,191.636 13.667 C 192.073 13.208,192.491 12.833,192.565 12.833 C 192.639 12.833,193.059 12.477,193.499 12.042 C 194.945 10.609,195.667 10.149,195.667 10.662 C 195.667 10.751,196.042 10.985,196.500 11.183 C 196.958 11.380,197.333 11.595,197.333 11.662 C 197.333 11.728,197.651 11.925,198.040 12.100 C 198.429 12.274,198.879 12.548,199.040 12.708 C 199.201 12.869,199.427 13.002,199.542 13.005 C 199.657 13.008,199.620 13.086,199.458 13.180 C 199.298 13.273,199.167 13.442,199.167 13.554 C 199.167 13.666,198.829 14.076,198.417 14.464 C 198.004 14.852,197.667 15.231,197.667 15.306 C 197.667 15.380,197.368 15.736,197.003 16.096 C 196.638 16.456,196.338 16.809,196.336 16.882 C 196.335 16.954,195.977 17.383,195.542 17.835 C 195.106 18.287,194.487 18.967,194.167 19.346 C 193.846 19.725,193.271 20.359,192.888 20.754 C 192.182 21.483,191.833 22.002,191.833 22.322 C 191.833 22.440,192.648 22.500,194.240 22.500 C 195.785 22.500,196.687 22.565,196.758 22.680 C 196.820 22.779,197.044 22.817,197.256 22.763 C 197.505 22.701,197.746 22.770,197.933 22.957 C 198.142 23.165,198.243 23.189,198.292 23.040 C 198.390 22.747,198.833 22.783,198.833 23.083 C 198.833 23.383,199.164 23.424,199.172 23.125 C 199.175 23.010,199.290 23.066,199.429 23.249 C 199.626 23.510,199.709 23.534,199.817 23.360 C 199.927 23.182,199.973 23.190,200.054 23.400 C 200.112 23.552,200.261 23.620,200.410 23.563 C 200.551 23.509,200.667 23.547,200.667 23.649 C 200.667 23.750,200.779 23.833,200.917 23.833 C 201.054 23.833,201.167 23.906,201.167 23.995 C 201.167 24.084,201.279 24.113,201.417 24.060 C 201.563 24.004,201.668 24.058,201.669 24.191 C 201.671 24.378,201.696 24.379,201.813 24.194 C 201.925 24.017,201.975 24.027,202.059 24.247 C 202.117 24.398,202.235 24.478,202.321 24.424 C 202.407 24.371,202.595 24.496,202.739 24.701 C 202.882 24.906,203.001 25.001,203.003 24.912 C 203.004 24.811,203.051 24.813,203.128 24.917 C 203.195 25.009,203.475 25.193,203.750 25.327 C 204.025 25.460,204.388 25.723,204.556 25.910 C 204.725 26.097,204.814 26.156,204.755 26.042 C 204.695 25.927,204.689 25.833,204.740 25.833 C 204.896 25.833,205.435 26.425,205.549 26.721 C 205.608 26.874,205.757 27.000,205.880 27.000 C 206.165 27.000,207.122 27.930,207.249 28.331 C 207.303 28.499,207.531 28.758,207.756 28.906 C 207.982 29.053,208.167 29.285,208.167 29.421 C 208.167 29.556,208.252 29.667,208.357 29.667 C 208.614 29.667,208.988 30.182,208.995 30.547 C 208.998 30.710,209.117 30.889,209.260 30.943 C 209.402 30.998,209.480 31.146,209.431 31.272 C 209.383 31.397,209.408 31.500,209.487 31.500 C 209.566 31.500,209.678 31.688,209.735 31.917 C 209.856 32.399,213.879 32.594,214.047 32.125 C 214.088 32.010,214.157 31.954,214.202 32.000 C 214.321 32.122,213.975 37.069,213.841 37.167 C 213.552 37.378,213.134 46.399,213.382 47.083 C 213.646 47.814,214.458 48.833,214.775 48.833 C 214.886 48.833,215.107 48.965,215.268 49.125 C 215.630 49.487,218.009 49.556,218.125 49.208 C 218.163 49.094,218.286 49.000,218.399 49.000 C 218.689 49.000,219.631 48.044,219.765 47.612 C 219.827 47.413,219.956 47.200,220.052 47.139 C 220.217 47.033,220.807 40.155,220.825 38.125 C 220.830 37.598,220.896 37.167,220.972 37.167 C 221.168 37.167,221.732 28.352,221.595 27.433 C 221.478 26.653,220.518 25.333,220.068 25.333 C 219.952 25.333,219.726 25.202,219.565 25.042 C 219.254 24.731,213.703 24.681,213.503 24.987 C 213.270 25.346,206.799 25.376,206.991 25.017 C 207.092 24.829,207.323 24.595,207.504 24.498 C 207.685 24.401,207.833 24.221,207.833 24.099 C 207.833 23.977,208.133 23.586,208.500 23.230 C 208.866 22.874,209.166 22.528,209.167 22.460 C 209.167 22.393,209.542 21.984,210.000 21.551 C 210.458 21.118,210.833 20.697,210.833 20.616 C 210.833 20.534,211.171 20.148,211.583 19.759 C 211.996 19.369,212.333 18.966,212.333 18.863 C 212.333 18.761,212.553 18.514,212.822 18.316 C 213.123 18.093,213.392 17.676,213.525 17.227 C 213.643 16.827,213.798 16.500,213.870 16.500 C 213.941 16.500,214.000 16.087,214.000 15.583 C 214.000 15.079,213.932 14.667,213.848 14.667 C 213.764 14.667,213.644 14.359,213.580 13.982 C 213.470 13.328,212.419 12.000,212.012 12.000 C 211.927 12.000,211.758 11.905,211.637 11.788 C 211.516 11.671,211.023 11.391,210.542 11.165 C 210.060 10.939,209.667 10.697,209.667 10.626 C 209.667 10.555,209.367 10.377,209.000 10.231 C 208.633 10.084,208.333 9.905,208.333 9.833 C 208.333 9.762,208.033 9.583,207.667 9.436 C 207.300 9.289,206.999 9.113,206.998 9.043 C 206.997 8.974,206.585 8.734,206.082 8.510 C 205.578 8.286,205.167 8.059,205.167 8.006 C 205.167 7.952,204.830 7.760,204.418 7.579 C 204.007 7.398,203.669 7.197,203.668 7.133 C 203.667 7.068,203.348 6.860,202.958 6.670 C 202.013 6.208,200.771 5.497,200.667 5.358 C 200.621 5.296,200.265 5.096,199.877 4.914 C 199.488 4.732,199.170 4.536,199.169 4.479 C 199.168 4.421,198.792 4.213,198.333 4.016 C 197.875 3.819,197.500 3.592,197.500 3.512 C 197.500 3.432,197.125 3.232,196.667 3.067 C 196.208 2.902,195.833 2.707,195.833 2.634 C 195.833 2.560,195.383 2.500,194.833 2.500 C 194.278 2.500,193.833 2.574,193.833 2.667 M158.833 11.242 C 158.833 11.467,158.921 11.842,159.027 12.076 C 159.134 12.310,159.161 12.557,159.088 12.626 C 159.014 12.694,158.921 12.656,158.880 12.542 C 158.836 12.418,158.508 12.333,158.069 12.333 L 157.333 12.333 157.333 13.583 C 157.333 14.970,157.325 14.963,158.542 14.680 C 158.885 14.600,159.167 14.562,159.167 14.595 C 159.167 14.628,159.046 15.009,158.899 15.442 C 158.648 16.183,158.650 16.242,158.931 16.448 C 159.196 16.641,159.149 16.667,158.532 16.667 C 157.898 16.667,157.833 16.705,157.833 17.083 C 157.833 17.384,157.744 17.500,157.511 17.500 C 156.966 17.500,156.333 17.189,156.333 16.921 C 156.333 16.721,156.118 16.667,155.333 16.667 C 154.674 16.667,154.333 16.734,154.333 16.864 C 154.333 17.182,154.882 19.075,155.001 19.167 C 155.060 19.212,155.243 19.813,155.408 20.500 C 155.572 21.188,155.763 21.787,155.832 21.833 C 156.170 22.057,156.196 23.000,155.865 23.000 C 155.653 23.000,155.499 23.149,155.431 23.420 C 155.273 24.049,155.588 24.500,156.184 24.500 C 156.851 24.500,156.835 25.215,156.167 25.308 C 155.518 25.397,155.333 25.648,155.333 26.437 L 155.333 27.167 154.659 27.167 C 154.153 27.167,153.887 27.271,153.598 27.583 C 153.386 27.813,153.135 28.000,153.040 28.000 C 152.854 28.000,152.667 28.385,152.667 28.768 C 152.667 28.900,152.867 29.084,153.111 29.177 C 153.356 29.270,153.650 29.475,153.765 29.632 C 153.928 29.856,154.297 29.929,155.486 29.975 L 157.000 30.033 157.000 31.507 C 157.000 32.317,156.925 33.027,156.833 33.083 C 156.742 33.140,156.667 33.736,156.667 34.409 C 156.667 36.436,156.095 41.465,155.842 41.667 C 155.785 41.712,155.596 42.481,155.424 43.375 C 155.251 44.269,155.051 45.000,154.979 45.000 C 154.907 45.000,154.801 45.255,154.742 45.568 C 154.651 46.051,154.551 46.151,154.068 46.242 C 153.755 46.301,153.500 46.404,153.500 46.471 C 153.500 46.538,153.275 46.679,153.000 46.782 C 152.438 46.994,152.264 47.920,152.750 48.106 C 153.405 48.358,152.940 50.422,152.168 50.691 C 151.892 50.787,151.667 50.926,151.667 51.000 C 151.667 51.073,151.328 51.272,150.914 51.442 C 150.421 51.644,150.090 51.908,149.956 52.208 C 149.844 52.460,149.695 52.667,149.626 52.667 C 149.032 52.667,149.814 54.287,150.532 54.543 C 150.679 54.596,150.602 54.740,150.292 54.989 C 150.040 55.192,149.833 55.502,149.833 55.679 C 149.833 55.855,149.758 56.000,149.667 56.000 C 149.575 56.000,149.500 56.375,149.500 56.833 L 149.500 57.667 144.000 57.667 L 138.500 57.667 138.500 56.333 C 138.500 55.303,138.447 55.000,138.267 55.000 C 136.352 55.000,135.098 52.669,136.358 51.452 C 136.718 51.104,136.783 49.923,136.454 49.717 C 136.338 49.643,136.108 49.373,135.945 49.116 C 135.781 48.859,135.520 48.601,135.365 48.542 C 135.210 48.483,134.984 48.337,134.863 48.218 C 134.742 48.098,134.547 48.000,134.431 48.000 C 134.314 48.000,134.083 47.850,133.917 47.667 C 133.619 47.337,133.626 47.333,134.491 47.333 C 136.054 47.333,137.000 46.578,137.000 45.328 C 137.000 44.836,136.972 44.813,136.500 44.917 L 136.000 45.026 136.000 43.951 C 136.000 42.849,135.646 41.526,135.292 41.308 C 135.182 41.240,135.139 41.139,135.195 41.083 C 135.251 41.027,135.503 41.173,135.756 41.407 C 136.560 42.153,136.721 42.004,136.631 40.597 C 136.574 39.710,136.468 39.277,136.254 39.063 C 135.904 38.713,136.155 38.559,136.646 38.823 C 137.250 39.146,137.333 39.036,137.333 37.917 C 137.333 37.306,137.261 36.833,137.167 36.833 C 137.075 36.833,137.000 36.702,136.999 36.542 C 136.998 36.381,136.885 36.034,136.747 35.770 L 136.497 35.289 137.079 35.384 C 137.399 35.436,137.695 35.422,137.737 35.354 C 137.856 35.162,137.481 33.770,137.260 33.583 C 137.151 33.492,137.013 33.284,136.952 33.121 C 136.891 32.958,136.670 32.759,136.462 32.678 C 136.126 32.547,136.165 32.517,136.808 32.408 C 137.973 32.211,137.158 30.601,135.537 29.896 L 135.105 29.708 135.469 29.481 C 136.045 29.121,135.324 27.833,134.546 27.833 C 134.429 27.833,134.333 27.758,134.333 27.667 C 134.333 27.575,134.222 27.500,134.087 27.500 C 133.884 27.500,133.874 27.426,134.032 27.079 C 134.308 26.474,134.004 26.250,132.909 26.250 C 132.089 26.250,132.001 26.215,132.000 25.889 C 132.000 25.548,130.992 25.167,130.093 25.167 C 129.378 25.167,128.668 23.891,129.165 23.500 C 129.223 23.454,129.409 22.967,129.578 22.417 C 129.747 21.867,129.965 21.364,130.062 21.301 C 130.388 21.089,130.045 20.978,128.766 20.881 L 127.500 20.785 127.500 21.208 C 127.500 21.558,127.237 21.833,126.903 21.833 C 126.865 21.833,126.833 21.598,126.833 21.310 L 126.833 20.786 125.487 20.878 C 124.747 20.929,124.112 20.999,124.077 21.035 C 123.974 21.137,124.469 22.877,124.631 22.985 C 125.009 23.237,125.146 24.510,124.818 24.715 C 124.643 24.824,124.500 25.008,124.500 25.123 C 124.500 25.239,124.436 25.333,124.358 25.333 C 124.279 25.333,123.998 25.539,123.733 25.790 C 123.467 26.042,123.100 26.325,122.917 26.420 C 122.677 26.544,122.556 26.824,122.485 27.421 C 122.349 28.573,122.231 28.772,121.509 29.060 C 121.161 29.199,120.825 29.449,120.762 29.615 C 120.558 30.154,119.590 31.476,119.333 31.568 C 119.028 31.677,118.535 31.996,118.141 32.340 C 117.626 32.788,118.520 35.667,119.174 35.667 C 119.354 35.667,119.500 35.742,119.500 35.833 C 119.500 36.073,119.956 36.039,120.056 35.792 C 120.103 35.677,120.146 35.752,120.154 35.958 C 120.175 36.558,122.833 36.499,122.833 35.899 C 122.833 35.771,122.908 35.667,123.000 35.667 C 123.092 35.667,123.167 35.368,123.167 35.003 C 123.167 34.434,123.226 34.325,123.583 34.235 C 123.813 34.178,124.000 34.071,124.000 33.998 C 124.000 33.495,126.665 33.170,127.856 33.526 C 128.637 33.760,128.666 34.027,127.977 34.628 C 127.689 34.878,127.247 35.271,126.995 35.500 C 126.489 35.961,126.047 36.277,125.667 36.448 C 125.529 36.511,125.319 36.698,125.199 36.864 C 125.079 37.030,124.881 37.167,124.760 37.167 C 124.638 37.167,124.415 37.354,124.265 37.583 C 124.115 37.813,123.900 38.001,123.788 38.002 C 123.549 38.004,122.500 39.044,122.500 39.278 C 122.500 39.366,122.354 39.594,122.175 39.786 C 121.997 39.977,121.726 40.516,121.573 40.984 C 121.420 41.451,121.236 41.833,121.165 41.833 C 121.093 41.833,120.899 42.508,120.732 43.333 C 120.565 44.158,120.370 44.833,120.298 44.833 C 120.226 44.833,120.167 44.983,120.167 45.167 C 120.167 45.352,120.278 45.500,120.417 45.500 C 120.663 45.500,120.771 46.169,120.683 47.148 C 120.646 47.554,119.528 48.833,119.210 48.833 C 118.879 48.833,117.500 50.206,117.500 50.536 C 117.500 50.717,117.662 51.093,117.860 51.371 C 118.622 52.441,118.382 54.072,117.417 54.387 C 117.142 54.477,116.879 54.600,116.833 54.660 C 116.787 54.721,116.487 54.844,116.167 54.934 L 115.583 55.097 115.583 56.382 L 115.583 57.667 111.542 57.667 L 107.500 57.667 107.500 56.289 C 107.500 54.965,107.482 54.899,107.042 54.626 C 106.790 54.470,106.677 54.340,106.792 54.338 C 107.012 54.333,107.094 53.334,106.875 53.332 C 106.806 53.332,106.628 53.116,106.478 52.854 C 106.269 52.485,106.004 52.328,105.316 52.162 C 104.164 51.886,104.057 51.762,103.715 50.304 C 103.557 49.633,103.379 49.046,103.319 49.000 C 103.191 48.902,102.667 45.905,102.667 45.271 C 102.667 45.030,102.602 44.833,102.524 44.833 C 102.319 44.833,102.129 41.112,102.265 39.784 C 102.344 39.008,102.449 38.667,102.606 38.667 C 102.731 38.667,102.833 38.600,102.833 38.519 C 102.833 38.438,103.161 38.322,103.561 38.262 C 104.618 38.104,104.809 37.893,104.938 36.750 C 105.000 36.200,105.111 35.710,105.184 35.662 C 105.359 35.546,105.577 32.163,105.444 31.632 C 105.310 31.099,104.686 30.829,103.316 30.715 L 102.204 30.621 102.086 31.477 C 101.948 32.485,101.860 32.562,101.011 32.419 C 100.421 32.319,99.846 31.500,100.367 31.500 C 100.451 31.500,100.497 31.222,100.468 30.882 C 100.404 30.112,100.187 30.038,97.917 30.019 C 95.492 29.998,95.485 30.001,95.521 31.190 C 95.556 32.357,95.536 32.384,94.626 32.402 C 93.955 32.416,93.914 32.389,93.871 31.917 C 93.745 30.541,93.365 30.382,91.417 30.891 L 90.583 31.108 90.601 33.655 C 90.611 35.065,90.690 36.249,90.778 36.309 C 90.866 36.368,91.008 36.792,91.094 37.250 L 91.250 38.083 92.125 38.239 C 92.606 38.324,93.000 38.455,93.000 38.530 C 93.000 38.605,93.150 38.667,93.333 38.667 C 93.653 38.667,93.667 38.778,93.667 41.333 C 93.667 43.000,93.604 44.000,93.500 44.000 C 93.408 44.000,93.333 44.193,93.333 44.428 C 93.333 45.148,92.799 48.578,92.673 48.667 C 92.608 48.712,92.416 49.369,92.246 50.125 C 92.076 50.881,91.876 51.500,91.802 51.500 C 91.728 51.500,91.667 51.612,91.667 51.750 C 91.667 51.902,91.512 52.000,91.270 52.000 C 90.176 52.000,89.000 53.022,89.000 53.973 C 89.000 54.240,88.888 54.553,88.750 54.667 C 88.564 54.821,88.500 55.233,88.500 56.270 L 88.500 57.667 85.331 57.667 C 82.394 57.667,80.833 57.848,80.833 58.189 C 80.833 58.249,80.308 58.426,79.667 58.583 C 79.025 58.741,78.500 58.926,78.500 58.994 C 78.500 59.063,77.844 59.294,77.042 59.507 C 76.240 59.720,75.546 59.946,75.500 60.008 C 75.454 60.071,74.967 60.252,74.417 60.411 C 73.867 60.570,73.379 60.753,73.333 60.818 C 73.287 60.884,72.725 61.076,72.083 61.245 C 71.442 61.415,70.872 61.621,70.817 61.704 C 70.762 61.787,70.125 62.006,69.401 62.192 C 68.677 62.377,68.047 62.582,68.001 62.648 C 67.901 62.789,66.230 63.333,65.898 63.333 C 65.771 63.333,65.667 63.397,65.667 63.475 C 65.667 63.553,65.029 63.785,64.250 63.990 C 63.471 64.196,62.833 64.420,62.833 64.488 C 62.833 64.555,62.271 64.751,61.583 64.922 C 60.896 65.093,60.333 65.284,60.333 65.345 C 60.333 65.406,59.865 65.587,59.292 65.747 C 58.719 65.908,58.212 66.087,58.167 66.147 C 58.121 66.207,57.484 66.429,56.752 66.641 C 56.020 66.852,55.382 67.083,55.335 67.154 C 55.288 67.225,54.706 67.415,54.042 67.576 C 53.377 67.737,52.833 67.920,52.833 67.981 C 52.833 68.096,51.058 68.667,50.700 68.667 C 50.590 68.667,50.500 68.734,50.500 68.815 C 50.500 68.897,50.294 69.012,50.042 69.071 C 49.140 69.282,47.748 69.731,47.667 69.838 C 47.621 69.898,47.058 70.085,46.417 70.255 C 45.775 70.424,45.207 70.626,45.154 70.703 C 45.101 70.780,44.463 71.003,43.737 71.199 C 43.011 71.394,42.379 71.602,42.333 71.660 C 42.287 71.719,41.912 71.864,41.500 71.984 C 41.087 72.103,40.450 72.334,40.083 72.496 C 39.717 72.658,39.023 72.883,38.542 72.996 C 38.060 73.108,37.667 73.259,37.667 73.332 C 37.667 73.404,37.048 73.630,36.292 73.834 C 35.535 74.037,34.879 74.255,34.833 74.318 C 34.787 74.381,34.262 74.575,33.667 74.750 C 33.071 74.925,32.546 75.115,32.500 75.174 C 32.454 75.232,31.892 75.419,31.250 75.588 C 30.608 75.758,30.040 75.959,29.987 76.036 C 29.934 76.113,29.297 76.336,28.571 76.532 C 27.844 76.728,27.212 76.935,27.167 76.994 C 27.062 77.127,25.376 77.667,25.064 77.667 C 24.937 77.667,24.833 77.736,24.833 77.821 C 24.833 77.906,24.412 78.070,23.898 78.185 C 23.383 78.301,22.877 78.480,22.772 78.585 C 22.668 78.689,21.945 78.946,21.166 79.155 C 20.387 79.364,19.675 79.594,19.583 79.665 C 19.492 79.737,18.967 79.934,18.417 80.102 C 17.867 80.270,17.379 80.452,17.333 80.506 C 17.287 80.561,16.631 80.780,15.875 80.993 C 15.119 81.205,14.500 81.428,14.500 81.486 C 14.500 81.545,13.960 81.732,13.299 81.902 C 12.638 82.072,12.006 82.303,11.894 82.415 C 11.783 82.527,11.236 82.708,10.679 82.818 C 10.122 82.927,9.667 83.080,9.667 83.157 C 9.667 83.234,9.460 83.346,9.208 83.407 C 8.065 83.680,6.833 84.084,6.833 84.186 C 6.833 84.247,6.290 84.429,5.625 84.591 C 4.960 84.752,4.374 84.950,4.321 85.030 C 4.268 85.109,3.781 85.299,3.238 85.451 C 2.694 85.604,2.208 85.789,2.158 85.863 C 2.107 85.937,1.695 86.048,1.243 86.110 C 0.012 86.279,-0.080 86.435,0.204 87.879 C 0.438 89.075,0.444 89.083,0.970 89.074 C 1.262 89.069,91.081 89.050,200.568 89.032 L 399.636 89.000 399.722 88.125 C 399.769 87.644,399.859 87.007,399.922 86.710 C 400.016 86.273,399.979 86.149,399.727 86.056 C 399.556 85.993,399.379 85.893,399.333 85.835 C 399.287 85.777,398.744 85.595,398.125 85.430 C 397.506 85.265,397.000 85.077,397.000 85.014 C 397.000 84.950,396.456 84.758,395.792 84.588 C 395.127 84.417,394.546 84.227,394.500 84.165 C 394.402 84.031,392.210 83.333,391.889 83.333 C 391.767 83.333,391.667 83.273,391.667 83.199 C 391.667 83.125,391.123 82.925,390.458 82.754 C 389.794 82.584,389.207 82.380,389.154 82.301 C 389.102 82.223,388.614 82.034,388.071 81.882 C 387.528 81.730,387.046 81.558,387.000 81.501 C 386.954 81.444,386.317 81.222,385.583 81.008 C 384.850 80.795,384.212 80.568,384.167 80.504 C 384.121 80.441,383.540 80.249,382.875 80.079 C 382.210 79.909,381.667 79.716,381.667 79.650 C 381.667 79.585,381.029 79.363,380.250 79.157 C 379.471 78.951,378.833 78.719,378.833 78.641 C 378.833 78.564,378.729 78.500,378.602 78.500 C 378.290 78.500,376.604 77.960,376.500 77.827 C 376.454 77.768,375.892 77.581,375.250 77.412 C 374.608 77.242,374.045 77.049,373.998 76.981 C 373.951 76.914,373.314 76.686,372.581 76.474 C 371.849 76.262,371.212 76.045,371.167 75.992 C 371.121 75.938,370.639 75.770,370.096 75.618 C 369.553 75.466,369.065 75.277,369.012 75.199 C 368.960 75.120,368.373 74.916,367.708 74.746 C 367.044 74.575,366.500 74.375,366.500 74.301 C 366.500 74.227,366.400 74.167,366.278 74.167 C 365.963 74.167,363.767 73.471,363.667 73.339 C 363.621 73.279,363.077 73.095,362.458 72.930 C 361.840 72.765,361.333 72.577,361.333 72.514 C 361.333 72.450,360.790 72.258,360.125 72.088 C 359.460 71.917,358.879 71.727,358.833 71.665 C 358.735 71.531,356.544 70.833,356.222 70.833 C 356.100 70.833,356.000 70.773,356.000 70.699 C 356.000 70.625,355.456 70.423,354.792 70.251 C 354.127 70.079,353.502 69.857,353.402 69.758 C 353.303 69.659,352.665 69.436,351.986 69.261 C 351.306 69.087,350.712 68.899,350.667 68.843 C 350.621 68.787,350.133 68.603,349.583 68.433 C 349.033 68.264,348.546 68.074,348.500 68.011 C 348.454 67.948,347.892 67.758,347.250 67.588 C 346.608 67.419,346.046 67.231,346.000 67.171 C 345.918 67.064,344.527 66.615,343.625 66.404 C 343.373 66.345,343.167 66.230,343.167 66.149 C 343.167 66.067,343.063 66.000,342.936 66.000 C 342.624 66.000,340.938 65.460,340.833 65.327 C 340.787 65.268,340.225 65.081,339.583 64.912 C 338.942 64.742,338.378 64.549,338.331 64.481 C 338.284 64.414,337.647 64.186,336.915 63.974 C 336.182 63.762,335.546 63.545,335.500 63.491 C 335.454 63.436,335.042 63.294,334.583 63.174 C 334.125 63.053,333.593 62.858,333.401 62.740 C 333.208 62.622,332.421 62.355,331.651 62.147 C 330.880 61.939,330.212 61.722,330.167 61.665 C 330.121 61.609,329.633 61.424,329.083 61.256 C 328.533 61.087,328.046 60.898,328.000 60.835 C 327.954 60.773,327.373 60.583,326.708 60.412 C 326.044 60.242,325.500 60.049,325.500 59.984 C 325.500 59.918,324.862 59.696,324.083 59.490 C 323.304 59.285,322.667 59.053,322.667 58.975 C 322.667 58.897,322.563 58.833,322.436 58.833 C 322.116 58.833,320.436 58.292,320.333 58.156 C 320.287 58.095,319.706 57.906,319.042 57.736 C 318.377 57.565,317.833 57.368,317.833 57.296 C 317.833 57.225,317.721 57.167,317.583 57.167 C 317.446 57.167,317.333 57.279,317.333 57.417 C 317.333 57.631,316.833 57.667,313.833 57.667 L 310.333 57.667 310.333 56.519 C 310.333 55.512,310.293 55.362,309.999 55.285 C 309.784 55.229,309.700 55.107,309.763 54.944 C 309.988 54.357,309.349 53.535,308.498 53.317 C 307.878 53.158,307.666 53.018,307.591 52.721 C 307.537 52.508,307.428 52.333,307.347 52.333 C 307.266 52.333,307.065 51.958,306.900 51.500 C 306.736 51.042,306.547 50.667,306.480 50.667 C 306.319 50.667,305.870 49.265,305.732 48.333 C 305.671 47.921,305.551 47.494,305.465 47.384 C 305.078 46.894,305.222 43.254,305.630 43.196 C 306.585 43.061,307.291 41.588,306.500 41.382 C 306.310 41.332,306.167 41.154,306.167 40.969 C 306.167 40.562,305.787 40.168,305.387 40.161 C 305.104 40.156,305.106 40.139,305.412 39.908 C 305.784 39.627,305.908 37.258,305.563 37.033 C 305.465 36.969,305.333 36.705,305.269 36.446 C 305.206 36.187,304.813 35.643,304.395 35.238 C 303.978 34.832,303.718 34.500,303.818 34.500 C 303.918 34.500,304.000 34.345,304.000 34.155 C 304.000 33.044,302.261 32.994,302.232 34.104 C 302.216 34.686,302.109 34.886,301.533 35.407 C 300.511 36.330,299.971 39.078,300.650 39.897 C 300.841 40.127,300.834 40.167,300.604 40.167 C 300.455 40.167,300.333 40.242,300.333 40.333 C 300.333 40.425,300.221 40.500,300.083 40.500 C 299.930 40.500,299.833 40.656,299.833 40.905 C 299.833 41.164,299.713 41.349,299.500 41.417 C 298.758 41.652,299.450 43.066,300.370 43.196 C 300.942 43.277,300.764 48.884,300.175 49.333 C 300.115 49.379,299.927 49.792,299.757 50.250 C 299.587 50.708,299.399 51.121,299.341 51.167 C 299.282 51.212,299.027 51.679,298.774 52.203 C 298.378 53.024,298.236 53.170,297.746 53.262 C 296.949 53.411,296.351 53.976,296.278 54.649 C 296.244 54.957,296.093 55.278,295.942 55.363 C 295.730 55.481,295.667 55.766,295.667 56.592 L 295.667 57.667 287.333 57.667 L 279.000 57.667 279.000 57.155 C 279.000 56.564,278.672 56.167,278.185 56.167 C 277.872 56.167,277.842 56.048,277.798 54.625 L 277.750 53.083 277.292 53.031 C 276.983 52.995,276.833 52.881,276.833 52.681 C 276.833 52.252,276.269 51.667,275.855 51.667 C 275.587 51.667,275.500 51.564,275.500 51.250 C 275.500 51.021,275.437 50.833,275.359 50.833 C 275.281 50.833,275.043 49.333,274.829 47.500 C 274.615 45.667,274.379 44.167,274.304 44.167 C 274.228 44.167,274.167 44.017,274.167 43.833 C 274.167 43.533,274.278 43.500,275.300 43.500 C 276.657 43.500,276.833 43.361,276.833 42.289 C 276.833 41.277,276.606 40.833,276.089 40.833 C 275.776 40.833,275.677 40.733,275.636 40.375 C 275.595 40.015,275.485 39.905,275.125 39.864 C 274.652 39.810,274.574 39.579,274.664 38.513 C 274.685 38.260,274.557 38.002,274.323 37.826 L 273.948 37.543 274.367 37.178 C 274.598 36.978,274.888 36.500,275.011 36.115 C 275.135 35.731,275.314 35.363,275.410 35.298 C 275.674 35.117,275.642 30.798,275.375 30.709 C 275.260 30.670,275.167 30.536,275.167 30.411 C 275.167 30.077,274.803 29.333,274.640 29.333 C 274.563 29.333,274.500 29.428,274.500 29.543 C 274.500 29.659,274.350 29.847,274.167 29.961 C 273.983 30.076,273.833 30.279,273.833 30.412 C 273.833 30.546,273.683 30.735,273.500 30.833 C 273.317 30.931,273.167 31.117,273.167 31.246 C 273.167 31.375,273.094 31.525,273.006 31.580 C 272.762 31.730,273.260 30.216,273.550 29.926 C 274.348 29.128,273.636 27.167,272.549 27.167 C 272.403 27.167,272.331 26.654,272.297 25.375 L 272.250 23.583 270.793 23.535 C 268.688 23.466,268.667 23.486,268.667 25.511 C 268.667 26.944,268.626 27.193,268.375 27.289 C 268.097 27.395,267.071 28.387,266.468 29.132 C 266.123 29.559,265.667 30.864,265.667 31.422 C 265.667 31.648,265.592 31.833,265.500 31.833 C 265.405 31.833,265.333 32.333,265.333 33.000 C 265.333 33.642,265.393 34.167,265.466 34.167 C 265.538 34.167,265.699 34.622,265.822 35.178 C 265.946 35.734,266.130 36.280,266.232 36.391 C 266.954 37.177,267.109 37.576,266.808 37.868 C 266.573 38.096,266.534 38.320,266.614 38.993 C 266.710 39.804,266.698 39.833,266.299 39.833 C 265.877 39.833,265.333 40.286,265.333 40.638 C 265.333 40.745,265.232 40.833,265.109 40.833 C 264.660 40.833,264.333 41.428,264.333 42.245 C 264.333 43.256,264.612 43.488,265.838 43.495 L 266.758 43.500 266.604 45.042 C 266.519 45.890,266.396 46.621,266.331 46.667 C 266.239 46.732,265.658 50.985,265.665 51.542 C 265.666 51.610,265.518 51.667,265.335 51.667 C 264.870 51.667,264.333 52.171,264.333 52.609 C 264.333 52.887,264.221 52.991,263.875 53.031 L 263.417 53.083 263.369 54.625 C 263.322 56.120,263.309 56.167,262.928 56.167 C 262.496 56.167,262.333 56.443,262.333 57.180 L 262.333 57.667 255.500 57.667 L 248.667 57.667 248.667 56.727 C 248.667 55.940,248.599 55.726,248.250 55.402 C 247.956 55.130,247.833 54.841,247.833 54.425 C 247.833 54.099,247.767 53.833,247.686 53.833 C 247.605 53.833,247.500 53.684,247.452 53.501 C 247.404 53.318,247.227 53.116,247.057 53.052 C 246.888 52.988,246.647 52.834,246.522 52.709 C 246.396 52.585,246.071 52.439,245.799 52.385 C 245.527 52.330,245.260 52.165,245.206 52.018 C 245.152 51.871,245.049 51.710,244.977 51.661 C 244.906 51.612,244.718 50.975,244.560 50.244 C 244.401 49.514,244.227 48.879,244.171 48.833 C 244.060 48.742,243.580 46.665,243.411 45.542 C 243.352 45.152,243.245 44.833,243.174 44.833 C 243.102 44.833,242.911 43.952,242.749 42.875 C 242.587 41.798,242.398 40.879,242.329 40.833 C 242.260 40.787,242.066 39.775,241.899 38.583 C 241.731 37.392,241.545 36.379,241.485 36.333 C 241.327 36.212,240.942 31.228,241.075 31.014 C 241.136 30.915,241.477 30.833,241.831 30.833 C 242.186 30.833,242.589 30.721,242.726 30.583 C 242.864 30.446,243.045 30.333,243.129 30.333 C 244.002 30.333,244.077 28.315,243.216 27.987 C 242.937 27.881,242.838 27.742,242.899 27.542 C 243.031 27.103,242.628 26.690,241.900 26.519 C 241.543 26.435,241.334 26.359,241.436 26.350 C 241.538 26.341,241.763 25.733,241.936 25.000 C 242.109 24.267,242.296 23.667,242.352 23.667 C 242.409 23.667,242.596 23.067,242.769 22.334 C 242.942 21.601,243.140 21.001,243.208 21.000 C 243.277 21.000,243.333 20.767,243.333 20.482 C 243.333 20.011,243.295 19.973,242.911 20.070 C 242.576 20.154,242.391 20.068,242.008 19.648 C 241.538 19.134,241.507 19.125,240.775 19.310 C 239.866 19.539,239.666 19.474,239.299 18.831 C 238.787 17.933,237.358 18.134,236.617 19.208 C 236.446 19.457,236.324 19.473,235.778 19.321 C 235.167 19.151,235.115 19.169,234.562 19.738 C 233.960 20.358,233.757 20.447,233.583 20.167 C 233.527 20.075,233.363 20.000,233.219 20.000 C 232.937 20.000,233.032 21.644,233.324 21.830 C 233.399 21.878,233.627 22.592,233.832 23.417 C 234.036 24.242,234.263 24.992,234.335 25.083 C 234.844 25.732,234.801 26.469,234.248 26.573 C 233.709 26.674,233.505 26.918,233.495 27.472 C 233.493 27.625,233.232 27.938,232.917 28.167 C 231.832 28.954,232.464 30.512,233.965 30.753 C 235.409 30.985,235.333 30.920,235.333 31.920 C 235.333 32.422,235.258 32.833,235.167 32.833 C 235.075 32.833,235.000 33.181,235.000 33.606 C 235.000 34.642,234.481 38.728,234.336 38.833 C 234.273 38.879,234.048 39.985,233.837 41.292 C 233.626 42.598,233.400 43.667,233.337 43.667 C 233.273 43.667,233.086 44.454,232.921 45.417 C 232.756 46.379,232.570 47.167,232.509 47.167 C 232.447 47.167,232.258 47.860,232.087 48.708 C 231.917 49.556,231.721 50.288,231.652 50.335 C 231.583 50.382,231.423 50.827,231.297 51.324 C 231.080 52.180,231.030 52.240,230.333 52.472 C 229.929 52.607,229.520 52.783,229.424 52.864 C 229.328 52.945,229.109 53.109,228.937 53.228 C 228.722 53.376,228.597 53.717,228.540 54.305 C 228.495 54.779,228.397 55.167,228.324 55.167 C 227.919 55.167,227.667 55.747,227.667 56.679 L 227.667 57.667 199.167 57.667 L 170.667 57.667 170.667 56.858 C 170.667 55.916,170.388 55.000,170.100 55.000 C 169.559 55.000,169.529 54.610,170.050 54.350 C 171.215 53.768,170.771 52.063,169.294 51.446 C 168.953 51.303,168.509 51.032,168.306 50.843 C 168.103 50.655,167.876 50.500,167.802 50.500 C 167.728 50.500,167.667 50.396,167.667 50.268 C 167.667 50.140,167.554 49.992,167.417 49.940 C 166.979 49.772,167.079 48.284,167.542 48.081 C 168.112 47.831,168.042 47.147,167.417 46.852 C 167.142 46.722,166.879 46.559,166.833 46.490 C 166.787 46.420,166.483 46.314,166.158 46.253 C 165.594 46.147,164.979 44.629,164.997 43.389 C 164.999 43.282,164.929 43.169,164.841 43.139 C 164.754 43.108,164.550 42.146,164.388 41.000 C 164.225 39.854,164.043 38.879,163.982 38.833 C 163.805 38.699,163.500 34.472,163.500 32.143 L 163.500 30.000 164.761 30.000 C 166.037 30.000,166.458 29.874,167.063 29.311 C 167.246 29.140,167.457 29.000,167.531 29.000 C 167.606 29.000,167.667 28.813,167.667 28.583 C 167.667 28.354,167.606 28.167,167.531 28.167 C 167.457 28.167,167.251 28.035,167.073 27.874 C 166.663 27.502,165.913 27.167,165.492 27.167 C 165.218 27.167,165.167 27.050,165.167 26.423 C 165.167 25.634,164.894 25.333,164.178 25.333 C 163.921 25.333,163.833 25.227,163.833 24.917 C 163.833 24.617,163.923 24.500,164.153 24.500 C 165.069 24.500,165.453 23.287,164.604 23.074 L 164.208 22.974 164.477 21.946 C 164.625 21.380,164.793 20.879,164.852 20.833 C 164.910 20.787,165.084 20.189,165.239 19.503 C 165.395 18.817,165.582 18.217,165.657 18.170 C 165.732 18.122,165.846 17.765,165.911 17.375 L 166.029 16.667 165.107 16.667 C 164.376 16.667,164.138 16.735,163.953 16.999 C 163.557 17.563,162.686 17.639,162.789 17.100 C 162.871 16.675,162.853 16.666,161.894 16.644 C 161.357 16.631,161.085 16.589,161.292 16.549 C 161.504 16.508,161.667 16.355,161.667 16.196 C 161.667 15.708,161.348 14.779,161.128 14.627 C 160.931 14.490,161.455 14.552,162.458 14.783 C 162.824 14.867,162.833 14.835,162.833 13.505 L 162.833 12.140 162.292 12.257 C 161.994 12.321,161.725 12.440,161.694 12.520 C 161.617 12.723,161.000 12.705,161.000 12.500 C 161.000 12.408,161.063 12.333,161.140 12.333 C 161.260 12.333,161.667 11.256,161.667 10.939 C 161.667 10.881,161.029 10.833,160.250 10.833 C 158.857 10.833,158.833 10.840,158.833 11.242 M183.111 26.611 C 182.909 26.814,182.996 26.991,183.250 26.894 C 183.387 26.841,183.500 26.731,183.500 26.649 C 183.500 26.474,183.270 26.452,183.111 26.611 M181.367 28.367 C 181.126 28.608,181.107 28.833,181.327 28.833 C 181.416 28.833,181.569 28.683,181.667 28.500 C 181.863 28.133,181.681 28.052,181.367 28.367 M191.333 28.667 C 191.333 28.758,191.446 28.833,191.583 28.833 C 191.721 28.833,191.833 28.758,191.833 28.667 C 191.833 28.575,191.721 28.500,191.583 28.500 C 191.446 28.500,191.333 28.575,191.333 28.667 M179.042 31.926 C 178.796 32.193,178.776 32.333,178.982 32.333 C 179.124 32.333,179.391 31.832,179.296 31.743 C 179.271 31.719,179.156 31.802,179.042 31.926 M162.174 38.667 C 162.261 38.667,162.333 38.948,162.333 39.292 C 162.333 40.164,162.866 43.899,163.006 44.000 C 163.069 44.046,163.174 44.449,163.240 44.896 C 163.306 45.343,163.400 45.812,163.448 45.938 C 163.515 46.113,163.337 46.167,162.684 46.167 L 161.833 46.167 161.867 41.125 C 161.885 38.352,161.926 36.665,161.957 37.375 C 161.988 38.085,162.086 38.667,162.174 38.667 M211.241 36.515 C 211.179 36.614,211.213 36.779,211.315 36.881 C 211.451 37.017,211.500 36.969,211.500 36.700 C 211.500 36.298,211.413 36.236,211.241 36.515 M205.500 37.750 C 205.500 37.887,205.575 38.000,205.667 38.000 C 205.758 38.000,205.833 37.887,205.833 37.750 C 205.833 37.612,205.758 37.500,205.667 37.500 C 205.575 37.500,205.500 37.612,205.500 37.750 M178.883 37.958 C 179.690 37.988,180.965 37.988,181.717 37.957 C 182.468 37.926,181.808 37.901,180.250 37.902 C 178.692 37.902,178.077 37.927,178.883 37.958 M211.558 39.667 C 211.558 40.446,211.587 40.765,211.622 40.375 C 211.657 39.985,211.657 39.348,211.622 38.958 C 211.587 38.569,211.558 38.887,211.558 39.667 M205.500 41.750 C 205.500 41.887,205.575 42.000,205.667 42.000 C 205.758 42.000,205.833 41.887,205.833 41.750 C 205.833 41.612,205.758 41.500,205.667 41.500 C 205.575 41.500,205.500 41.612,205.500 41.750 M211.000 43.750 C 211.000 43.887,211.075 44.000,211.167 44.000 C 211.258 44.000,211.333 43.887,211.333 43.750 C 211.333 43.612,211.258 43.500,211.167 43.500 C 211.075 43.500,211.000 43.612,211.000 43.750 M191.333 50.833 C 191.333 50.925,191.446 51.000,191.583 51.000 C 191.721 51.000,191.833 50.925,191.833 50.833 C 191.833 50.742,191.721 50.667,191.583 50.667 C 191.446 50.667,191.333 50.742,191.333 50.833 M192.333 51.000 C 192.333 51.092,192.446 51.167,192.583 51.167 C 192.721 51.167,192.833 51.092,192.833 51.000 C 192.833 50.908,192.721 50.833,192.583 50.833 C 192.446 50.833,192.333 50.908,192.333 51.000 M195.833 51.000 C 195.833 51.092,195.988 51.167,196.177 51.167 C 196.365 51.167,196.473 51.092,196.417 51.000 C 196.360 50.908,196.206 50.833,196.073 50.833 C 195.941 50.833,195.833 50.908,195.833 51.000 M207.278 50.944 C 207.075 51.147,207.163 51.324,207.417 51.227 C 207.554 51.174,207.667 51.064,207.667 50.982 C 207.667 50.807,207.437 50.785,207.278 50.944 M183.101 52.736 C 183.157 52.881,183.276 53.000,183.365 53.000 C 183.584 53.000,183.447 52.621,183.198 52.538 C 183.076 52.498,183.039 52.574,183.101 52.736 M140.062 60.708 C 139.993 60.823,139.801 61.015,139.635 61.134 C 139.469 61.254,139.333 61.434,139.333 61.534 C 139.333 61.633,139.184 61.873,139.002 62.066 C 138.180 62.935,137.833 63.359,137.833 63.495 C 137.833 63.576,137.665 63.782,137.458 63.953 C 137.252 64.124,137.000 64.410,136.899 64.590 C 136.717 64.910,136.406 64.917,120.575 64.959 C 102.943 65.006,103.490 65.036,105.769 64.128 C 106.146 63.977,106.738 63.662,107.084 63.427 C 107.430 63.192,107.811 63.000,107.932 63.000 C 108.052 63.000,108.210 62.899,108.283 62.776 C 108.357 62.653,108.775 62.416,109.214 62.251 C 109.652 62.086,110.065 61.863,110.131 61.757 C 110.196 61.651,110.513 61.461,110.833 61.336 C 111.154 61.211,111.551 60.972,111.715 60.804 C 112.098 60.414,140.295 60.318,140.062 60.708 M219.583 61.833 C 219.751 62.567,219.941 63.167,220.006 63.167 C 220.071 63.167,220.171 63.460,220.228 63.819 C 220.286 64.177,220.378 64.590,220.434 64.735 C 220.527 64.976,218.467 65.000,197.450 65.000 C 174.447 65.000,174.365 64.999,174.452 64.667 C 174.500 64.483,174.600 64.333,174.674 64.333 C 174.749 64.333,174.904 63.912,175.019 63.398 C 175.134 62.883,175.312 62.377,175.415 62.273 C 175.518 62.169,175.702 61.727,175.823 61.292 L 176.043 60.500 197.661 60.500 L 219.279 60.500 219.583 61.833 M285.266 60.916 C 285.532 61.146,285.840 61.333,285.950 61.333 C 286.060 61.333,286.210 61.437,286.283 61.563 C 286.357 61.689,286.773 61.953,287.208 62.150 C 287.644 62.347,288.000 62.576,288.000 62.659 C 288.000 62.742,288.300 62.942,288.667 63.103 C 289.033 63.265,289.333 63.445,289.333 63.503 C 289.333 63.560,289.671 63.776,290.083 63.982 C 290.496 64.188,290.833 64.420,290.833 64.498 C 290.833 64.575,291.040 64.714,291.292 64.806 C 291.605 64.921,286.683 64.978,275.788 64.987 L 259.825 65.000 259.676 64.609 C 259.595 64.394,259.428 64.112,259.306 63.982 C 259.183 63.851,258.934 63.446,258.750 63.081 C 258.567 62.716,258.315 62.309,258.189 62.177 C 258.063 62.045,257.887 61.726,257.797 61.468 C 257.708 61.211,257.566 61.000,257.484 61.000 C 257.401 61.000,257.333 60.887,257.333 60.750 C 257.333 60.530,258.969 60.500,271.057 60.500 L 284.781 60.500 285.266 60.916 M92.998 67.958 C 92.997 68.027,92.678 68.232,92.290 68.414 C 91.901 68.596,91.546 68.790,91.500 68.844 C 91.454 68.899,91.042 69.125,90.583 69.347 C 90.125 69.568,89.712 69.796,89.667 69.852 C 89.621 69.908,89.321 70.087,89.000 70.250 C 88.679 70.413,88.379 70.598,88.333 70.662 C 88.287 70.725,87.856 70.953,87.375 71.168 C 86.894 71.383,86.500 71.606,86.500 71.662 C 86.500 71.719,86.162 71.904,85.750 72.074 C 85.337 72.244,84.999 72.429,84.998 72.483 C 84.997 72.538,84.678 72.732,84.290 72.914 C 83.901 73.096,83.546 73.290,83.500 73.344 C 83.454 73.399,83.042 73.625,82.583 73.847 C 82.125 74.069,81.605 74.381,81.427 74.542 C 81.249 74.702,81.011 74.833,80.897 74.833 C 80.783 74.833,80.559 74.965,80.399 75.125 C 80.125 75.399,78.926 75.418,60.345 75.440 C 49.476 75.453,40.733 75.425,40.917 75.379 C 41.100 75.333,41.294 75.224,41.349 75.138 C 41.403 75.052,41.890 74.866,42.432 74.725 C 42.974 74.584,43.454 74.412,43.500 74.345 C 43.546 74.277,43.883 74.139,44.250 74.038 C 44.617 73.937,45.254 73.762,45.667 73.650 C 46.079 73.537,46.454 73.390,46.500 73.322 C 46.546 73.254,47.026 73.083,47.568 72.942 C 48.110 72.800,48.597 72.620,48.651 72.540 C 48.706 72.461,49.275 72.258,49.917 72.088 C 50.558 71.919,51.121 71.733,51.167 71.676 C 51.212 71.619,51.850 71.390,52.583 71.167 C 53.317 70.943,53.954 70.716,54.000 70.662 C 54.046 70.607,54.590 70.428,55.208 70.263 C 55.827 70.098,56.333 69.906,56.333 69.837 C 56.333 69.768,57.008 69.537,57.833 69.324 C 58.658 69.112,59.333 68.883,59.333 68.816 C 59.333 68.749,59.858 68.559,60.500 68.393 C 61.142 68.228,61.667 68.034,61.667 67.963 C 61.667 67.892,68.717 67.833,77.333 67.833 C 85.950 67.833,92.999 67.890,92.998 67.958 M170.333 68.000 C 170.333 68.092,170.270 68.167,170.193 68.167 C 170.116 68.167,169.913 68.635,169.743 69.208 C 169.572 69.781,169.387 70.287,169.331 70.333 C 169.229 70.416,168.774 71.839,168.571 72.708 C 168.512 72.960,168.405 73.167,168.334 73.167 C 168.262 73.167,168.071 73.656,167.910 74.253 C 167.684 75.085,167.533 75.360,167.266 75.424 C 167.074 75.470,159.084 75.488,149.511 75.462 L 132.105 75.417 132.553 74.934 C 132.799 74.669,133.001 74.406,133.003 74.351 C 133.004 74.295,133.303 73.912,133.667 73.500 C 134.030 73.087,134.329 72.674,134.331 72.582 C 134.332 72.489,134.483 72.320,134.667 72.205 C 134.850 72.091,135.000 71.894,135.000 71.768 C 135.000 71.642,135.188 71.415,135.417 71.265 C 135.646 71.115,135.833 70.883,135.833 70.750 C 135.833 70.617,136.021 70.385,136.250 70.235 C 136.479 70.085,136.667 69.858,136.667 69.732 C 136.667 69.606,136.817 69.409,137.000 69.295 C 137.183 69.180,137.333 69.023,137.333 68.945 C 137.333 68.867,137.502 68.589,137.708 68.327 L 138.083 67.852 154.208 67.843 C 164.853 67.836,170.333 67.890,170.333 68.000 M258.167 68.083 C 258.167 68.221,258.241 68.333,258.331 68.333 C 258.422 68.333,258.605 68.596,258.739 68.917 C 258.873 69.237,259.050 69.500,259.131 69.500 C 259.213 69.500,259.378 69.798,259.499 70.162 C 259.619 70.527,259.837 70.958,259.984 71.121 C 260.130 71.283,260.400 71.717,260.583 72.083 C 260.767 72.450,260.975 72.776,261.046 72.807 C 261.117 72.838,261.288 73.136,261.427 73.468 C 261.566 73.800,261.749 74.114,261.833 74.167 C 261.918 74.219,262.103 74.540,262.246 74.881 L 262.504 75.500 244.502 75.500 C 228.611 75.500,226.500 75.471,226.500 75.250 C 226.500 75.112,226.434 75.000,226.352 75.000 C 226.271 75.000,226.168 74.794,226.122 74.542 C 225.881 73.194,225.445 71.406,225.341 71.333 C 225.275 71.287,225.082 70.631,224.913 69.875 C 224.743 69.119,224.543 68.500,224.469 68.500 C 224.394 68.500,224.333 68.350,224.333 68.167 C 224.333 67.836,224.444 67.833,241.250 67.833 C 256.176 67.833,258.167 67.863,258.167 68.083 M339.667 67.988 C 339.667 68.073,340.088 68.237,340.602 68.352 C 341.117 68.467,341.623 68.645,341.727 68.748 C 341.831 68.850,342.592 69.112,343.417 69.331 C 344.242 69.549,344.961 69.793,345.015 69.873 C 345.070 69.953,345.557 70.134,346.099 70.275 C 346.640 70.416,347.121 70.582,347.167 70.644 C 347.212 70.705,347.849 70.929,348.581 71.141 C 349.314 71.352,349.951 71.583,349.998 71.654 C 350.045 71.725,350.627 71.915,351.292 72.076 C 351.956 72.237,352.500 72.420,352.500 72.481 C 352.500 72.596,354.276 73.167,354.633 73.167 C 354.743 73.167,354.833 73.235,354.833 73.319 C 354.833 73.403,355.407 73.607,356.108 73.772 C 356.808 73.937,357.465 74.155,357.566 74.256 C 357.667 74.358,358.275 74.580,358.917 74.752 C 359.558 74.923,360.121 75.112,360.167 75.173 C 360.212 75.234,360.363 75.326,360.500 75.379 C 360.637 75.431,350.124 75.480,337.137 75.487 C 317.350 75.498,313.487 75.463,313.295 75.272 C 313.170 75.146,312.827 74.919,312.534 74.767 C 312.240 74.616,312.000 74.437,312.000 74.370 C 312.000 74.303,311.625 74.076,311.167 73.866 C 310.708 73.655,310.332 73.431,310.331 73.367 C 310.330 73.303,310.030 73.107,309.665 72.932 C 309.299 72.756,309.000 72.561,309.000 72.498 C 309.000 72.436,308.700 72.249,308.333 72.083 C 307.967 71.918,307.667 71.721,307.667 71.646 C 307.667 71.570,307.310 71.347,306.875 71.150 C 306.440 70.953,306.023 70.689,305.950 70.563 C 305.877 70.437,305.722 70.333,305.606 70.333 C 305.491 70.333,305.239 70.187,305.047 70.008 C 304.855 69.830,304.354 69.521,303.933 69.323 C 303.511 69.125,303.167 68.896,303.167 68.814 C 303.167 68.733,302.867 68.536,302.500 68.377 C 302.133 68.218,301.833 68.031,301.833 67.961 C 301.833 67.891,310.346 67.833,320.750 67.833 C 332.276 67.833,339.667 67.894,339.667 67.988 M126.000 78.564 C 126.000 78.691,125.813 78.918,125.583 79.068 C 125.354 79.218,125.167 79.450,125.167 79.583 C 125.167 79.717,124.979 79.949,124.750 80.099 C 124.521 80.249,124.333 80.475,124.333 80.601 C 124.333 80.727,124.183 80.924,124.000 81.039 C 123.817 81.153,123.667 81.336,123.667 81.445 C 123.667 81.553,123.479 81.790,123.250 81.970 C 123.021 82.150,122.833 82.346,122.833 82.406 C 122.833 82.588,122.100 83.569,121.792 83.800 C 121.631 83.921,121.500 84.100,121.500 84.199 C 121.500 84.298,121.331 84.549,121.125 84.757 C 120.919 84.965,120.566 85.367,120.341 85.651 L 119.932 86.167 93.454 86.167 C 72.264 86.167,67.021 86.125,67.199 85.958 C 67.322 85.844,67.721 85.600,68.086 85.417 C 68.451 85.234,68.849 84.990,68.970 84.875 C 69.091 84.761,69.283 84.667,69.397 84.667 C 69.511 84.667,69.754 84.526,69.938 84.355 C 70.122 84.184,70.552 83.942,70.894 83.819 C 71.235 83.695,71.643 83.478,71.799 83.337 C 71.955 83.195,72.402 82.937,72.792 82.764 C 73.181 82.591,73.500 82.400,73.500 82.340 C 73.500 82.280,73.819 82.092,74.208 81.922 C 74.598 81.752,74.954 81.564,75.000 81.503 C 75.046 81.443,75.458 81.215,75.917 80.997 C 76.375 80.779,76.849 80.503,76.970 80.384 C 77.091 80.264,77.283 80.167,77.397 80.167 C 77.511 80.167,77.751 80.035,77.931 79.875 C 78.112 79.715,78.557 79.434,78.921 79.252 C 79.285 79.069,79.623 78.867,79.671 78.802 C 79.979 78.389,81.768 78.354,103.292 78.344 C 122.533 78.335,126.000 78.369,126.000 78.564 M224.303 78.875 C 224.332 79.127,224.411 79.333,224.480 79.333 C 224.548 79.333,224.743 79.952,224.913 80.708 C 225.082 81.465,225.274 82.121,225.338 82.167 C 225.402 82.212,225.622 83.037,225.826 84.000 C 226.031 84.962,226.275 85.844,226.369 85.958 C 226.506 86.125,220.550 86.167,196.687 86.167 C 171.362 86.167,166.833 86.132,166.833 85.936 C 166.833 85.616,167.375 83.935,167.511 83.833 C 167.572 83.787,167.752 83.300,167.911 82.750 C 168.070 82.200,168.253 81.712,168.319 81.667 C 168.435 81.585,168.873 80.240,169.105 79.256 C 169.169 78.984,169.302 78.668,169.402 78.553 C 169.546 78.388,175.250 78.353,196.917 78.381 L 224.250 78.417 224.303 78.875 M313.431 78.750 C 313.732 78.979,314.170 79.239,314.405 79.329 C 314.641 79.419,314.833 79.560,314.833 79.642 C 314.833 79.725,315.060 79.887,315.337 80.002 C 315.614 80.116,315.896 80.294,315.962 80.397 C 316.029 80.500,316.440 80.758,316.875 80.970 C 317.310 81.183,317.667 81.410,317.667 81.474 C 317.667 81.539,318.003 81.740,318.415 81.921 C 318.827 82.102,319.164 82.307,319.165 82.378 C 319.166 82.448,319.429 82.631,319.750 82.784 C 320.071 82.937,320.333 83.116,320.333 83.183 C 320.333 83.249,320.690 83.474,321.125 83.682 C 321.560 83.889,321.977 84.159,322.050 84.280 C 322.123 84.401,322.278 84.500,322.394 84.500 C 322.509 84.500,322.751 84.631,322.932 84.792 C 323.112 84.952,323.520 85.229,323.838 85.407 C 325.265 86.206,326.590 86.167,298.503 86.167 L 272.149 86.167 271.975 85.667 C 271.879 85.392,271.748 85.167,271.685 85.167 C 271.621 85.167,271.431 84.834,271.263 84.426 C 271.095 84.019,270.869 83.652,270.761 83.611 C 270.653 83.569,270.463 83.227,270.339 82.851 C 270.215 82.475,270.046 82.167,269.965 82.167 C 269.883 82.167,269.710 81.912,269.580 81.600 C 269.449 81.288,269.246 80.932,269.127 80.808 C 269.008 80.685,268.769 80.265,268.597 79.875 C 268.424 79.485,268.231 79.167,268.168 79.167 C 268.105 79.167,267.968 78.979,267.864 78.750 L 267.674 78.333 290.280 78.333 L 312.885 78.333 313.431 78.750 M198.508 95.525 C 197.734 95.606,197.059 95.731,197.008 95.804 C 196.958 95.877,196.477 96.040,195.939 96.166 C 195.401 96.292,194.865 96.492,194.748 96.609 C 194.631 96.726,194.209 96.952,193.809 97.111 C 193.410 97.269,192.984 97.497,192.863 97.616 C 192.742 97.736,192.573 97.833,192.488 97.833 C 192.404 97.833,192.056 98.096,191.716 98.416 C 191.376 98.737,190.982 99.041,190.841 99.092 C 190.545 99.198,189.000 101.051,189.000 101.300 C 189.000 101.390,188.887 101.508,188.750 101.560 C 188.612 101.613,188.500 101.757,188.500 101.880 C 188.500 102.003,188.367 102.249,188.203 102.427 C 187.884 102.775,187.167 104.398,187.167 104.772 C 187.167 104.898,187.098 105.000,187.013 105.000 C 186.824 105.000,186.333 107.099,186.333 107.908 C 186.333 108.234,186.258 108.500,186.167 108.500 C 186.065 108.500,186.000 109.278,186.000 110.500 C 186.000 111.722,186.065 112.500,186.167 112.500 C 186.258 112.500,186.333 112.771,186.333 113.101 C 186.333 113.868,186.844 116.000,187.027 116.000 C 187.104 116.000,187.167 116.102,187.167 116.228 C 187.167 116.602,187.884 118.225,188.203 118.573 C 188.367 118.751,188.500 118.955,188.500 119.028 C 188.500 119.143,190.479 121.158,191.167 121.744 C 191.304 121.861,191.679 122.089,192.000 122.252 C 192.321 122.414,192.621 122.598,192.667 122.662 C 192.713 122.725,193.162 122.921,193.667 123.096 C 194.171 123.271,194.623 123.468,194.672 123.533 C 195.245 124.303,203.947 124.291,204.499 123.521 C 204.545 123.456,204.912 123.297,205.314 123.167 C 205.715 123.038,206.128 122.850,206.230 122.751 C 206.333 122.651,206.679 122.467,207.000 122.342 C 207.651 122.087,207.759 122.001,209.443 120.374 C 210.763 119.100,211.169 118.260,210.883 117.395 C 210.638 116.656,209.973 116.660,209.206 117.405 C 208.869 117.732,208.547 118.000,208.490 118.000 C 208.433 118.000,208.029 118.337,207.592 118.750 C 207.156 119.162,206.699 119.500,206.578 119.500 C 206.456 119.500,206.252 119.605,206.123 119.734 C 205.811 120.046,204.569 120.457,203.518 120.597 C 203.050 120.659,202.667 120.775,202.667 120.855 C 202.667 120.935,202.104 121.000,201.417 121.000 C 200.729 121.000,200.167 120.935,200.167 120.856 C 200.167 120.777,199.818 120.664,199.392 120.606 C 198.279 120.453,197.381 120.191,197.133 119.945 C 197.014 119.827,196.662 119.586,196.350 119.407 C 195.875 119.136,194.283 117.624,193.451 116.655 C 193.328 116.511,193.094 116.062,192.932 115.656 C 192.769 115.250,192.569 114.876,192.486 114.825 C 192.326 114.726,191.667 112.309,191.667 111.821 C 191.667 111.660,191.573 111.497,191.458 111.458 C 191.302 111.406,191.250 110.646,191.250 108.417 C 191.250 106.187,191.302 105.427,191.458 105.375 C 191.573 105.337,191.667 105.174,191.667 105.014 C 191.667 104.632,192.332 102.608,192.492 102.500 C 192.561 102.454,192.713 102.229,192.831 102.000 C 193.075 101.528,193.237 101.325,194.025 100.500 C 194.918 99.567,195.615 99.070,196.375 98.825 C 196.765 98.700,197.121 98.546,197.167 98.484 C 197.510 98.017,202.310 98.037,202.472 98.506 C 202.503 98.594,202.604 98.667,202.697 98.667 C 202.942 98.667,204.031 99.200,204.392 99.496 C 205.256 100.206,206.947 101.982,207.167 102.411 C 207.304 102.679,207.583 103.080,207.786 103.301 C 207.990 103.523,208.200 103.842,208.253 104.010 C 208.307 104.178,208.497 104.363,208.675 104.419 C 208.854 104.476,209.000 104.592,209.000 104.678 C 209.000 104.763,209.198 104.833,209.439 104.833 C 209.892 104.833,210.667 104.161,210.667 103.768 C 210.667 103.192,210.278 100.740,210.175 100.667 C 210.110 100.621,209.932 99.950,209.778 99.176 C 209.625 98.403,209.432 97.727,209.349 97.676 C 209.265 97.625,209.142 97.287,209.074 96.926 C 208.825 95.597,207.723 95.129,206.551 95.853 C 205.963 96.216,204.528 96.202,204.078 95.829 C 203.921 95.699,200.530 95.297,200.083 95.356 C 199.992 95.368,199.283 95.444,198.508 95.525 M277.500 95.602 C 277.271 95.645,276.933 95.750,276.750 95.834 C 276.567 95.918,275.985 96.108,275.458 96.255 C 274.931 96.403,274.500 96.578,274.500 96.645 C 274.500 96.712,274.221 96.867,273.880 96.991 C 273.539 97.114,273.045 97.429,272.784 97.691 C 272.522 97.953,272.238 98.167,272.154 98.167 C 272.069 98.167,272.000 98.271,272.000 98.397 C 272.000 98.524,271.813 98.751,271.583 98.901 C 271.354 99.051,271.167 99.280,271.167 99.409 C 271.167 99.537,271.061 99.748,270.933 99.877 C 270.014 100.795,269.919 106.333,270.822 106.333 C 270.900 106.333,271.010 106.518,271.067 106.744 C 271.233 107.405,273.141 109.200,274.106 109.604 C 274.415 109.732,274.667 109.903,274.667 109.982 C 274.667 110.061,275.117 110.294,275.667 110.500 C 276.217 110.706,276.667 110.923,276.667 110.984 C 276.667 111.044,277.042 111.239,277.500 111.417 C 277.958 111.595,278.333 111.789,278.333 111.850 C 278.333 111.910,278.783 112.128,279.333 112.333 C 279.883 112.539,280.333 112.758,280.333 112.821 C 280.333 112.883,280.702 113.067,281.153 113.229 C 281.604 113.391,282.015 113.631,282.065 113.762 C 282.115 113.893,282.267 114.000,282.402 114.000 C 282.537 114.000,282.747 114.131,282.868 114.292 C 282.989 114.452,283.232 114.663,283.408 114.761 C 283.584 114.859,283.808 115.077,283.906 115.247 C 284.003 115.416,284.205 115.682,284.353 115.838 C 284.909 116.424,284.858 118.914,284.277 119.551 C 284.171 119.668,284.003 119.906,283.906 120.079 C 283.808 120.253,283.583 120.474,283.406 120.572 C 283.228 120.670,283.033 120.821,282.970 120.907 C 282.811 121.128,281.519 121.494,280.889 121.497 C 280.599 121.499,280.327 121.594,280.286 121.708 C 280.225 121.875,280.140 121.875,279.857 121.708 C 279.663 121.594,279.260 121.499,278.961 121.498 C 278.317 121.496,276.655 121.075,276.515 120.879 C 276.461 120.804,276.060 120.556,275.625 120.330 C 275.190 120.103,274.833 119.869,274.833 119.809 C 274.833 119.750,274.508 119.358,274.111 118.937 C 273.714 118.517,273.245 117.890,273.070 117.545 C 272.894 117.199,272.698 116.877,272.633 116.829 C 272.569 116.780,272.376 116.426,272.204 116.042 C 271.610 114.715,270.068 114.136,269.639 115.079 C 269.421 115.557,269.754 120.044,270.014 120.139 C 270.098 120.169,270.167 120.408,270.167 120.670 C 270.167 123.488,271.070 124.495,273.077 123.911 C 273.866 123.682,274.154 123.682,275.903 123.911 C 279.111 124.332,283.577 124.121,283.993 123.528 C 284.043 123.458,284.399 123.308,284.784 123.196 C 285.170 123.083,285.589 122.887,285.716 122.760 C 285.843 122.633,286.203 122.391,286.515 122.222 C 287.028 121.944,287.588 121.430,288.600 120.306 C 288.793 120.092,289.052 119.635,289.175 119.292 C 289.299 118.948,289.452 118.667,289.516 118.667 C 289.580 118.667,289.725 118.046,289.837 117.287 C 290.045 115.889,289.833 113.500,289.501 113.500 C 289.427 113.500,289.288 113.276,289.193 113.002 C 289.010 112.480,287.166 110.500,286.862 110.500 C 286.765 110.500,286.588 110.368,286.468 110.207 C 286.348 110.045,285.932 109.764,285.544 109.582 C 285.155 109.399,284.836 109.201,284.835 109.142 C 284.834 109.082,284.458 108.899,284.000 108.734 C 283.542 108.569,283.167 108.383,283.167 108.320 C 283.167 108.257,282.735 108.033,282.208 107.821 C 281.681 107.610,281.212 107.383,281.166 107.317 C 281.120 107.251,280.745 107.063,280.333 106.899 C 279.921 106.735,279.484 106.503,279.363 106.384 C 279.242 106.264,279.036 106.167,278.905 106.167 C 278.774 106.167,278.531 106.035,278.364 105.875 C 278.198 105.715,277.767 105.434,277.406 105.252 C 274.351 103.708,273.938 100.572,276.527 98.578 C 277.434 97.879,281.333 97.822,281.333 98.508 C 281.333 98.595,281.437 98.667,281.564 98.667 C 281.937 98.667,282.676 99.105,282.941 99.484 C 283.075 99.676,283.275 99.835,283.384 99.837 C 283.494 99.839,283.808 100.108,284.083 100.434 C 284.358 100.761,284.752 101.199,284.958 101.408 C 285.165 101.617,285.333 101.844,285.333 101.913 C 285.333 102.780,287.227 104.329,287.990 104.086 C 288.573 103.902,288.429 98.543,287.832 98.167 C 287.759 98.121,287.645 97.722,287.579 97.280 C 287.353 95.774,286.073 94.989,285.074 95.745 C 284.692 96.033,283.057 96.088,282.966 95.816 C 282.903 95.625,278.321 95.446,277.500 95.602 M301.042 95.609 C 300.744 95.652,300.500 95.744,300.500 95.813 C 300.500 95.882,300.009 96.036,299.409 96.156 C 298.809 96.275,298.224 96.467,298.109 96.581 C 297.994 96.696,297.660 96.914,297.367 97.066 C 297.073 97.218,296.833 97.415,296.833 97.504 C 296.833 97.594,296.732 97.667,296.609 97.667 C 296.368 97.667,295.167 98.762,295.167 98.982 C 295.167 99.055,294.985 99.326,294.764 99.584 C 294.542 99.842,294.310 100.322,294.248 100.651 C 294.187 100.980,294.049 101.303,293.943 101.369 C 293.695 101.522,293.680 104.964,293.927 105.132 C 294.022 105.197,294.194 105.573,294.309 105.968 C 294.425 106.363,294.665 106.811,294.843 106.964 C 295.021 107.116,295.167 107.325,295.167 107.428 C 295.167 107.531,295.470 107.871,295.842 108.183 C 296.213 108.495,296.659 108.877,296.833 109.033 C 297.007 109.188,297.397 109.441,297.699 109.595 C 298.002 109.748,298.362 109.971,298.500 110.089 C 298.637 110.208,299.087 110.439,299.500 110.602 C 299.912 110.766,300.349 110.997,300.471 111.117 C 300.593 111.237,301.024 111.418,301.429 111.521 C 301.835 111.623,302.167 111.759,302.167 111.822 C 302.167 111.886,302.598 112.116,303.125 112.332 C 303.652 112.548,304.121 112.775,304.167 112.838 C 304.212 112.900,304.550 113.091,304.917 113.262 C 305.283 113.433,305.729 113.706,305.906 113.870 C 306.084 114.033,306.290 114.167,306.365 114.167 C 306.568 114.167,307.833 115.435,307.833 115.639 C 307.833 115.737,307.965 115.890,308.125 115.980 C 308.367 116.115,308.417 116.383,308.417 117.541 C 308.417 118.651,308.356 119.000,308.125 119.232 C 307.965 119.392,307.833 119.607,307.833 119.708 C 307.833 120.340,305.779 121.500,304.661 121.500 C 304.389 121.500,304.167 121.575,304.167 121.667 C 304.167 121.758,303.979 121.833,303.750 121.833 C 303.521 121.833,303.333 121.769,303.333 121.690 C 303.333 121.611,302.902 121.506,302.375 121.457 C 301.327 121.359,300.000 120.990,300.000 120.797 C 300.000 120.730,299.756 120.552,299.458 120.402 C 298.934 120.138,297.167 118.426,297.167 118.183 C 297.167 118.117,297.035 117.915,296.875 117.735 C 296.715 117.555,296.434 117.110,296.252 116.745 C 296.069 116.381,295.873 116.046,295.817 116.000 C 295.760 115.954,295.590 115.676,295.440 115.382 C 295.140 114.797,294.181 114.472,293.681 114.785 C 293.218 115.076,293.484 121.635,293.974 121.998 C 294.037 122.045,294.184 122.458,294.301 122.917 C 294.628 124.197,295.164 124.424,296.649 123.907 C 297.307 123.677,297.596 123.678,299.489 123.909 C 302.860 124.321,307.258 124.118,307.655 123.532 C 307.707 123.455,308.108 123.293,308.546 123.173 C 308.984 123.053,309.397 122.863,309.463 122.751 C 309.529 122.640,309.771 122.451,310.000 122.331 C 310.565 122.035,311.667 121.142,311.667 120.980 C 311.667 120.908,311.835 120.665,312.042 120.440 C 313.188 119.192,313.390 118.558,313.405 116.167 C 313.421 113.607,313.166 112.901,311.667 111.354 C 311.346 111.023,310.839 110.620,310.541 110.459 C 310.243 110.297,309.849 110.016,309.666 109.833 C 309.483 109.650,309.226 109.500,309.095 109.500 C 308.964 109.500,308.758 109.401,308.637 109.280 C 308.516 109.158,308.060 108.923,307.625 108.757 C 307.190 108.591,306.833 108.407,306.833 108.349 C 306.833 108.292,306.383 108.065,305.833 107.847 C 305.283 107.629,304.833 107.401,304.833 107.342 C 304.833 107.283,304.496 107.096,304.083 106.926 C 303.671 106.756,303.333 106.553,303.333 106.475 C 303.333 106.397,303.214 106.333,303.067 106.333 C 302.811 106.333,301.838 105.857,301.667 105.648 C 301.621 105.592,301.336 105.420,301.033 105.265 C 300.730 105.109,300.441 104.874,300.390 104.741 C 300.339 104.609,300.212 104.498,300.107 104.494 C 299.610 104.480,298.667 103.184,298.667 102.516 C 298.667 102.324,298.592 102.167,298.500 102.167 C 298.408 102.167,298.333 101.979,298.333 101.750 C 298.333 101.521,298.408 101.333,298.500 101.333 C 298.592 101.333,298.667 101.146,298.667 100.918 C 298.667 100.179,299.207 99.197,299.786 98.885 C 300.087 98.723,300.333 98.542,300.333 98.482 C 300.333 97.893,304.629 97.902,305.167 98.492 C 305.212 98.542,305.539 98.731,305.893 98.911 C 306.895 99.421,308.627 101.200,308.930 102.030 C 308.987 102.184,309.138 102.351,309.266 102.400 C 309.395 102.449,309.500 102.586,309.500 102.704 C 309.500 103.284,311.049 104.279,311.653 104.088 C 312.289 103.886,312.435 99.833,311.807 99.833 C 311.730 99.833,311.667 99.702,311.667 99.542 C 311.670 96.713,309.947 94.408,308.833 95.750 C 308.586 96.048,306.997 96.097,306.715 95.815 C 306.523 95.623,302.061 95.461,301.042 95.609 M84.417 95.833 C 84.360 95.925,84.108 96.000,83.857 96.000 C 82.885 96.000,82.615 97.350,83.458 97.990 C 85.371 99.442,85.242 98.674,85.300 108.999 C 85.356 119.032,85.302 119.766,84.442 120.734 C 84.148 121.063,83.825 121.333,83.723 121.333 C 83.409 121.333,83.000 122.125,83.000 122.732 C 83.000 123.823,83.045 123.833,87.738 123.833 L 91.951 123.833 92.392 123.425 C 93.097 122.772,93.030 122.597,91.467 120.981 C 90.527 120.009,90.284 119.077,90.365 116.750 L 90.417 115.250 94.083 115.148 C 97.468 115.054,100.000 114.774,100.000 114.493 C 100.000 114.429,100.450 114.251,101.000 114.097 C 101.550 113.942,102.000 113.750,102.000 113.669 C 102.000 113.589,102.158 113.472,102.351 113.411 C 102.804 113.267,104.833 111.351,104.833 111.067 C 104.833 110.948,104.943 110.788,105.077 110.713 C 105.336 110.569,105.833 109.327,105.833 108.826 C 105.833 108.662,105.926 108.497,106.039 108.459 C 106.320 108.365,106.332 103.872,106.051 103.698 C 105.945 103.633,105.768 103.205,105.658 102.748 C 105.548 102.291,105.370 101.842,105.263 101.750 C 105.156 101.658,104.914 101.283,104.725 100.917 C 104.247 99.989,102.642 98.431,101.702 97.982 C 101.270 97.775,100.879 97.557,100.833 97.496 C 100.787 97.436,100.375 97.247,99.917 97.077 C 99.458 96.906,99.046 96.720,99.000 96.661 C 98.848 96.469,96.941 96.156,95.286 96.052 C 94.389 95.995,93.616 95.885,93.568 95.808 C 93.441 95.603,84.544 95.627,84.417 95.833 M113.357 96.040 C 112.505 96.565,112.933 98.296,113.922 98.328 C 114.436 98.344,114.527 101.000,114.013 101.000 C 113.944 101.000,113.747 101.487,113.577 102.083 C 113.407 102.679,113.213 103.167,113.147 103.167 C 113.082 103.167,112.865 103.692,112.667 104.333 C 112.468 104.975,112.255 105.500,112.192 105.500 C 112.130 105.500,111.940 105.987,111.769 106.583 C 111.598 107.179,111.401 107.667,111.331 107.667 C 111.261 107.667,111.072 108.154,110.910 108.750 C 110.749 109.346,110.564 109.833,110.500 109.833 C 110.435 109.833,110.215 110.396,110.011 111.083 C 109.807 111.771,109.587 112.333,109.523 112.333 C 109.460 112.333,109.274 112.783,109.110 113.333 C 108.947 113.883,108.758 114.333,108.690 114.333 C 108.622 114.333,108.427 114.821,108.256 115.417 C 108.086 116.013,107.897 116.500,107.836 116.500 C 107.775 116.500,107.545 117.081,107.325 117.792 C 107.104 118.502,106.829 119.182,106.712 119.304 C 106.595 119.425,106.500 119.605,106.500 119.704 C 106.500 119.902,105.041 121.333,104.838 121.333 C 104.045 121.333,103.355 123.077,103.923 123.646 C 104.172 123.894,110.507 123.758,110.670 123.500 C 110.998 122.981,110.845 122.328,110.250 121.716 C 109.507 120.951,109.661 117.973,110.477 117.333 C 110.536 117.287,110.711 116.974,110.867 116.636 C 111.241 115.826,111.472 115.797,117.032 115.863 C 122.176 115.925,121.910 115.836,122.540 117.716 C 122.730 118.285,122.951 118.793,123.031 118.846 C 123.645 119.253,123.369 120.624,122.500 121.484 C 121.642 122.333,121.425 123.147,121.923 123.646 C 122.064 123.786,130.943 123.780,131.083 123.639 C 131.710 123.012,130.794 121.000,129.882 121.000 C 129.764 121.000,129.667 120.925,129.667 120.833 C 129.667 120.742,129.535 120.531,129.375 120.364 C 128.970 119.944,128.500 119.085,128.500 118.766 C 128.500 118.620,128.438 118.500,128.363 118.500 C 128.287 118.500,128.049 117.938,127.833 117.250 C 127.618 116.563,127.394 116.000,127.337 116.000 C 127.280 116.000,127.093 115.513,126.923 114.917 C 126.753 114.321,126.562 113.833,126.500 113.833 C 126.438 113.833,126.247 113.346,126.077 112.750 C 125.907 112.154,125.713 111.667,125.647 111.667 C 125.582 111.667,125.365 111.142,125.167 110.500 C 124.968 109.858,124.755 109.333,124.692 109.333 C 124.630 109.333,124.440 108.846,124.269 108.250 C 124.098 107.654,123.904 107.167,123.837 107.167 C 123.771 107.167,123.584 106.679,123.423 106.083 C 123.262 105.487,123.078 105.000,123.014 105.000 C 122.951 105.000,122.725 104.456,122.511 103.792 C 122.298 103.127,122.073 102.546,122.010 102.500 C 121.947 102.454,121.762 101.985,121.599 101.458 C 121.436 100.931,121.249 100.500,121.184 100.500 C 121.119 100.500,120.927 100.013,120.756 99.417 C 120.586 98.821,120.398 98.333,120.338 98.333 C 120.279 98.333,120.094 97.881,119.929 97.328 C 119.492 95.872,119.004 95.662,116.094 95.680 C 114.197 95.693,113.845 95.739,113.357 96.040 M134.420 95.828 C 134.361 95.923,134.105 96.000,133.849 96.000 C 132.730 96.000,132.494 97.632,133.542 98.132 C 133.794 98.253,134.000 98.417,134.000 98.498 C 134.000 98.578,134.143 98.690,134.318 98.745 C 134.749 98.882,135.167 99.993,135.167 101.003 C 135.167 101.460,135.242 101.833,135.333 101.833 C 135.442 101.833,135.500 104.583,135.500 109.750 C 135.500 114.917,135.442 117.667,135.333 117.667 C 135.242 117.667,135.166 117.985,135.166 118.375 C 135.164 119.708,134.351 121.333,133.686 121.333 C 133.017 121.333,132.700 123.009,133.262 123.572 C 133.694 124.004,141.804 123.959,142.308 123.522 C 142.946 122.968,142.487 121.333,141.693 121.333 C 141.591 121.333,141.376 121.127,141.214 120.875 C 141.053 120.623,140.831 120.322,140.720 120.206 C 140.421 119.893,140.309 118.797,140.366 116.750 L 140.417 114.917 143.499 114.803 C 146.932 114.677,146.865 114.659,147.324 115.833 C 147.449 116.154,147.647 116.496,147.764 116.593 C 147.882 116.691,148.106 117.103,148.263 117.510 C 148.419 117.917,148.655 118.337,148.786 118.444 C 149.458 118.991,149.610 120.951,149.013 121.375 C 148.294 121.886,148.132 122.888,148.676 123.472 C 149.013 123.834,149.080 123.839,153.020 123.795 L 157.021 123.750 157.291 123.304 C 157.684 122.657,157.315 121.571,156.595 121.254 C 155.930 120.960,154.757 119.807,154.474 119.168 C 154.352 118.892,154.208 118.667,154.154 118.667 C 154.101 118.667,153.876 118.273,153.655 117.792 C 153.434 117.310,153.172 116.864,153.073 116.800 C 152.973 116.736,152.792 116.379,152.669 116.008 C 152.547 115.637,152.380 115.333,152.298 115.333 C 152.216 115.333,152.033 115.052,151.890 114.708 C 151.748 114.365,151.526 114.023,151.399 113.950 C 150.996 113.719,151.145 113.408,151.767 113.183 C 152.374 112.964,152.464 112.901,153.483 112.001 C 153.795 111.725,154.108 111.500,154.180 111.500 C 154.252 111.500,154.354 111.363,154.407 111.196 C 154.460 111.029,154.640 110.745,154.807 110.566 C 154.974 110.387,155.251 109.868,155.422 109.412 C 155.593 108.956,155.812 108.530,155.908 108.464 C 156.139 108.308,156.147 103.200,155.916 103.036 C 155.824 102.970,155.605 102.485,155.431 101.958 C 155.256 101.431,155.062 101.000,155.001 101.000 C 154.940 101.000,154.783 100.794,154.653 100.542 C 154.268 99.797,152.689 98.325,151.900 97.975 C 151.496 97.797,151.167 97.587,151.167 97.508 C 151.167 97.429,150.735 97.231,150.208 97.068 C 149.681 96.904,149.212 96.719,149.167 96.655 C 148.727 96.043,134.771 95.260,134.420 95.828 M167.879 95.981 C 167.141 96.350,167.087 97.405,167.779 97.919 C 168.512 98.463,168.833 98.875,168.833 99.269 C 168.833 99.831,168.460 101.333,168.320 101.333 C 168.253 101.333,168.064 101.765,167.901 102.292 C 167.738 102.819,167.557 103.287,167.500 103.333 C 167.443 103.379,167.262 103.848,167.099 104.375 C 166.936 104.902,166.751 105.333,166.688 105.333 C 166.625 105.333,166.395 105.933,166.177 106.667 C 165.959 107.400,165.727 108.000,165.661 108.000 C 165.595 108.000,165.402 108.487,165.231 109.083 C 165.060 109.679,164.868 110.167,164.804 110.167 C 164.739 110.167,164.553 110.617,164.390 111.167 C 164.226 111.717,164.041 112.167,163.977 112.167 C 163.913 112.167,163.694 112.710,163.490 113.375 C 163.285 114.040,163.063 114.621,162.996 114.667 C 162.929 114.712,162.736 115.200,162.567 115.750 C 162.397 116.300,162.212 116.787,162.154 116.833 C 162.097 116.879,161.877 117.440,161.665 118.080 C 161.454 118.720,161.180 119.344,161.057 119.467 C 160.934 119.590,160.833 119.755,160.833 119.833 C 160.833 120.041,159.741 121.167,159.539 121.167 C 159.445 121.167,159.192 121.353,158.976 121.580 C 158.760 121.808,158.490 121.996,158.375 121.997 C 158.127 122.001,158.093 123.125,158.330 123.500 C 158.630 123.977,164.538 123.958,164.984 123.479 C 165.527 122.896,165.424 122.409,164.583 121.592 C 163.900 120.928,163.540 120.000,163.966 120.000 C 164.038 120.000,164.199 119.545,164.322 118.989 C 164.446 118.432,164.630 117.889,164.732 117.780 C 164.833 117.672,165.035 117.248,165.181 116.838 C 165.529 115.853,165.433 115.870,170.850 115.850 C 176.480 115.830,176.323 115.789,176.852 117.383 C 177.071 118.043,177.321 118.634,177.408 118.697 C 177.834 119.003,177.719 120.928,177.256 121.231 C 176.136 121.965,175.841 122.831,176.478 123.515 C 176.894 123.961,185.221 123.948,185.504 123.500 C 185.881 122.903,185.691 122.078,185.061 121.571 C 183.917 120.650,183.203 119.753,182.993 118.974 C 182.898 118.622,182.765 118.333,182.697 118.333 C 182.629 118.333,182.395 117.733,182.177 117.000 C 181.959 116.267,181.727 115.667,181.661 115.667 C 181.595 115.667,181.402 115.179,181.231 114.583 C 181.060 113.987,180.871 113.500,180.809 113.500 C 180.748 113.500,180.564 113.069,180.401 112.542 C 180.238 112.015,180.040 111.539,179.961 111.485 C 179.834 111.399,179.477 110.305,179.217 109.208 C 179.168 109.002,179.069 108.833,178.996 108.833 C 178.924 108.833,178.731 108.402,178.568 107.875 C 178.404 107.348,178.219 106.879,178.156 106.833 C 178.092 106.787,177.905 106.319,177.740 105.792 C 177.574 105.265,177.391 104.833,177.332 104.833 C 177.272 104.833,177.048 104.233,176.833 103.500 C 176.618 102.767,176.393 102.167,176.331 102.167 C 176.270 102.167,176.081 101.679,175.910 101.083 C 175.740 100.487,175.545 100.000,175.477 100.000 C 175.409 100.000,175.220 99.550,175.056 99.000 C 174.893 98.450,174.706 98.000,174.642 98.000 C 174.577 98.000,174.405 97.593,174.261 97.096 C 174.034 96.315,173.931 96.178,173.501 96.084 C 173.228 96.023,172.961 95.905,172.909 95.821 C 172.737 95.542,168.485 95.678,167.879 95.981 M215.000 95.833 C 215.000 95.925,214.808 96.000,214.572 96.000 C 213.489 96.000,212.959 97.535,213.875 98.020 C 214.758 98.487,215.500 99.553,215.500 100.354 C 215.500 100.526,215.575 100.667,215.667 100.667 C 215.776 100.667,215.833 103.861,215.833 109.917 C 215.833 115.972,215.776 119.167,215.667 119.167 C 215.575 119.167,215.500 119.344,215.500 119.561 C 215.500 120.130,214.384 121.480,213.902 121.494 C 213.403 121.510,213.186 122.874,213.596 123.417 C 213.935 123.866,222.723 123.944,223.004 123.500 C 223.435 122.817,223.067 121.702,222.267 121.271 C 221.714 120.973,221.167 120.231,221.167 119.780 C 221.167 119.641,221.081 119.499,220.977 119.464 C 220.754 119.390,220.552 112.681,220.736 111.454 C 220.849 110.697,220.857 110.689,221.683 110.512 C 222.785 110.276,232.544 110.275,233.644 110.511 L 234.472 110.688 234.593 112.136 C 234.752 114.029,234.568 119.227,234.339 119.304 C 234.244 119.335,234.167 119.470,234.167 119.604 C 234.167 120.000,233.510 121.167,233.288 121.167 C 232.865 121.167,232.167 122.121,232.169 122.693 C 232.174 123.782,232.026 123.750,237.000 123.750 C 241.989 123.750,241.826 123.787,241.831 122.666 C 241.833 122.130,241.160 121.238,240.557 120.977 C 240.323 120.876,239.833 119.888,239.833 119.516 C 239.833 119.324,239.758 119.167,239.667 119.167 C 239.558 119.167,239.500 115.944,239.500 109.833 C 239.500 104.700,239.557 100.500,239.626 100.500 C 239.695 100.500,239.849 100.191,239.966 99.814 C 240.184 99.115,240.797 98.376,241.446 98.029 C 242.269 97.589,242.126 96.237,241.239 96.070 C 240.922 96.011,240.622 95.896,240.572 95.814 C 240.442 95.604,233.667 95.623,233.667 95.833 C 233.667 95.925,233.474 96.000,233.239 96.000 C 231.815 96.000,231.740 97.136,233.083 98.377 C 233.588 98.843,234.000 99.305,234.001 99.404 C 234.002 99.503,234.124 99.808,234.273 100.083 C 234.708 100.884,234.709 106.813,234.275 107.248 C 233.483 108.042,221.852 108.043,221.060 107.250 C 220.692 106.881,220.575 100.601,220.933 100.369 C 221.033 100.303,221.170 100.025,221.236 99.750 C 221.356 99.255,222.118 98.411,222.738 98.085 C 223.642 97.611,223.316 96.117,222.290 96.032 C 221.947 96.003,221.667 95.909,221.667 95.823 C 221.667 95.731,220.302 95.667,218.333 95.667 C 216.222 95.667,215.000 95.728,215.000 95.833 M246.000 95.812 C 246.000 95.892,245.705 96.005,245.345 96.062 C 244.379 96.217,244.181 97.563,245.055 98.029 C 245.710 98.377,246.485 99.219,246.590 99.695 C 246.646 99.952,246.762 100.206,246.846 100.258 C 247.045 100.381,247.053 119.500,246.854 119.500 C 246.774 119.500,246.667 119.708,246.616 119.963 C 246.530 120.391,246.207 120.790,245.337 121.542 C 245.152 121.702,244.933 121.833,244.851 121.833 C 244.455 121.833,244.394 122.929,244.762 123.417 C 245.009 123.743,245.209 123.750,254.882 123.750 L 264.750 123.750 265.202 123.290 C 265.729 122.754,265.947 122.049,266.102 120.375 C 266.164 119.710,266.279 119.167,266.357 119.167 C 266.750 119.167,266.505 116.627,266.075 116.227 C 265.381 115.584,264.560 115.822,264.057 116.811 C 263.888 117.144,263.701 117.454,263.640 117.500 C 263.580 117.547,263.396 117.922,263.231 118.334 C 263.067 118.746,262.798 119.229,262.633 119.406 C 262.468 119.584,262.333 119.830,262.333 119.952 C 262.333 120.075,262.144 120.247,261.912 120.335 C 261.681 120.423,261.449 120.605,261.398 120.739 C 261.224 121.192,259.589 121.370,256.158 121.309 L 252.865 121.250 252.391 120.750 L 251.917 120.250 251.864 116.417 C 251.777 110.206,251.656 110.460,254.768 110.363 C 257.087 110.291,257.643 110.463,258.009 111.367 C 258.131 111.669,258.281 111.954,258.342 112.000 C 258.403 112.046,258.578 112.326,258.730 112.623 C 259.224 113.588,260.524 113.503,260.727 112.492 C 260.901 111.619,260.846 106.135,260.655 105.450 C 260.415 104.582,259.109 104.561,258.672 105.417 C 258.532 105.692,258.365 105.940,258.301 105.969 C 258.237 105.998,258.100 106.279,257.996 106.594 C 257.893 106.909,257.709 107.167,257.588 107.167 C 257.468 107.167,257.328 107.273,257.278 107.403 C 257.022 108.070,253.149 107.914,252.385 107.206 L 251.917 106.772 251.917 102.963 C 251.917 98.827,251.892 98.938,252.875 98.725 C 253.127 98.670,253.333 98.559,253.333 98.479 C 253.333 98.399,254.683 98.333,256.333 98.333 C 257.983 98.333,259.333 98.393,259.333 98.465 C 259.333 98.538,259.652 98.684,260.042 98.790 C 261.208 99.107,262.806 100.582,263.375 101.866 C 263.488 102.123,263.640 102.333,263.711 102.333 C 263.783 102.333,263.911 102.517,263.997 102.741 C 264.326 103.608,265.922 103.503,266.090 102.604 C 266.207 101.983,265.709 98.779,265.483 98.694 C 265.401 98.664,265.333 98.541,265.333 98.422 C 265.333 97.604,264.762 96.516,264.188 96.241 C 263.855 96.081,263.453 95.887,263.294 95.809 C 262.911 95.621,246.000 95.624,246.000 95.812 M94.984 98.464 C 95.039 98.547,95.308 98.667,95.583 98.730 C 96.320 98.899,97.000 99.189,97.000 99.334 C 97.000 99.404,97.131 99.505,97.292 99.559 C 97.978 99.790,99.153 100.864,99.505 101.583 C 99.640 101.858,99.828 102.167,99.924 102.270 C 100.020 102.372,100.205 102.785,100.334 103.186 C 100.463 103.588,100.629 103.959,100.703 104.011 C 101.096 104.288,101.103 108.726,100.711 108.975 C 100.618 109.035,100.493 109.311,100.432 109.588 C 100.302 110.190,99.237 111.418,98.708 111.577 C 98.502 111.638,98.333 111.749,98.333 111.822 C 98.333 112.481,91.344 112.964,90.609 112.355 C 90.316 112.111,90.175 99.003,90.461 98.561 C 90.717 98.166,94.731 98.080,94.984 98.464 M144.967 98.484 C 145.000 98.584,145.170 98.667,145.344 98.667 C 145.799 98.667,147.028 99.183,147.406 99.534 C 147.584 99.699,147.790 99.833,147.865 99.833 C 148.068 99.833,149.333 101.101,149.333 101.306 C 149.333 101.403,149.432 101.543,149.554 101.617 C 149.675 101.690,149.906 102.087,150.069 102.500 C 150.231 102.912,150.428 103.289,150.507 103.338 C 151.031 103.662,151.027 108.833,150.503 108.833 C 150.430 108.833,150.323 109.020,150.265 109.248 C 150.119 109.830,148.577 111.283,147.854 111.518 C 147.522 111.626,147.208 111.779,147.157 111.857 C 146.838 112.345,141.095 112.286,140.599 111.789 C 140.315 111.505,140.184 98.991,140.461 98.558 C 140.721 98.151,144.833 98.083,144.967 98.484 M116.656 102.667 C 116.728 102.667,116.958 103.267,117.167 104.000 C 117.375 104.733,117.602 105.333,117.669 105.333 C 117.737 105.333,117.932 105.821,118.102 106.417 C 118.273 107.013,118.463 107.500,118.524 107.500 C 118.585 107.500,118.770 107.931,118.935 108.458 C 119.099 108.985,119.331 109.516,119.450 109.637 C 119.569 109.758,119.667 109.956,119.667 110.076 C 119.667 110.472,120.233 112.079,120.452 112.304 C 120.938 112.803,120.710 113.123,119.792 113.229 C 118.604 113.367,112.559 113.281,112.402 113.125 C 112.282 113.005,112.966 110.672,113.171 110.500 C 113.226 110.454,113.404 109.985,113.568 109.458 C 113.731 108.931,113.914 108.500,113.975 108.500 C 114.086 108.500,114.306 107.869,114.658 106.542 C 114.762 106.152,114.903 105.833,114.973 105.833 C 115.043 105.833,115.240 105.346,115.410 104.750 C 115.581 104.154,115.773 103.667,115.838 103.667 C 115.903 103.667,116.058 103.310,116.181 102.875 C 116.307 102.433,116.432 102.212,116.465 102.375 C 116.498 102.535,116.584 102.667,116.656 102.667 M171.502 103.757 C 171.717 104.441,171.944 105.000,172.007 105.000 C 172.071 105.000,172.249 105.450,172.403 106.000 C 172.558 106.550,172.739 107.000,172.807 107.000 C 172.875 107.000,173.074 107.525,173.250 108.167 C 173.426 108.808,173.623 109.333,173.688 109.333 C 173.752 109.333,173.967 109.854,174.163 110.490 C 174.360 111.126,174.588 111.669,174.670 111.698 C 174.751 111.727,174.867 112.059,174.927 112.437 L 175.036 113.123 174.310 113.216 C 171.722 113.544,166.833 113.315,166.833 112.864 C 166.833 112.455,167.393 110.667,167.521 110.667 C 167.584 110.667,167.769 110.235,167.932 109.708 C 168.096 109.181,168.274 108.712,168.329 108.667 C 168.383 108.621,168.610 108.021,168.833 107.333 C 169.056 106.646,169.288 106.046,169.349 106.000 C 169.410 105.954,169.595 105.485,169.760 104.958 C 169.926 104.431,170.109 104.000,170.167 104.000 C 170.225 104.000,170.373 103.632,170.496 103.182 C 170.791 102.099,171.024 102.232,171.502 103.757 " stroke="none" fill="#000000" fill-rule="evenodd"></path></g></svg>