<?xml version="1.0" encoding="UTF-8"?>
<svg version="1.0" xmlns="http://www.w3.org/2000/svg" width="611.000000pt" height="270.000000pt" viewBox="0 0 611.000000 270.000000" preserveAspectRatio="xMidYMid meet" style="background: transparent;">

<g transform="translate(0.000000,270.000000) scale(0.100000,-0.100000)" fill="#000000" stroke="none">
<path d="M1340 2672 c-38 -12 -35 -36 12 -80 l43 -41 3 -338 c2 -186 0 -353 -3 -371 -4 -19 -23 -52 -46 -77 -21 -23 -39 -47 -39 -53 0 -24 44 -32 170 -32 176 0 205 17 136 80 -40 37 -58 94 -54 170 l3 55 139 7 c272 13 389 85 426 259 40 186 -89 358 -305 409 -58 13 -448 23 -485 12z m470 -104 c117 -68 172 -193 148 -332 -9 -49 -18 -66 -52 -101 -51 -51 -107 -68 -220 -68 -135 0 -126 -18 -126 266 0 181 3 246 13 256 8 9 38 12 102 9 76 -3 98 -8 135 -30z"/>
<path d="M2418 2673 c-30 -8 -29 -34 2 -69 16 -19 30 -42 30 -50 0 -19 -246 -646 -281 -716 -10 -20 -39 -53 -64 -73 -49 -41 -55 -59 -26 -75 21 -11 179 -14 205 -4 22 9 20 46 -4 67 -13 11 -20 29 -20 51 0 39 37 136 59 154 11 8 66 12 196 12 208 0 198 4 234 -93 27 -74 27 -80 -9 -120 -35 -40 -37 -53 -11 -67 21 -11 258 -14 285 -4 27 10 18 44 -26 94 -25 27 -55 77 -70 116 -110 279 -263 668 -280 712 -14 37 -27 56 -45 63 -24 9 -143 11 -175 2z m176 -400 c42 -106 76 -199 76 -208 0 -13 -22 -15 -154 -15 -85 0 -157 4 -160 9 -3 4 29 96 70 202 79 201 84 213 89 207 2 -2 38 -90 79 -195z"/>
<path d="M3140 2671 c-39 -11 -36 -38 8 -79 52 -48 54 -67 50 -452 -3 -332 -6 -347 -62 -384 -31 -20 -34 -51 -7 -66 11 -5 80 -10 155 -10 109 0 138 3 150 16 18 18 11 37 -24 69 -13 11 -29 34 -36 52 -15 34 -19 178 -6 186 4 3 58 7 120 8 l114 4 48 -87 c63 -111 68 -129 41 -167 -47 -66 -22 -81 136 -81 129 0 161 10 149 46 -4 10 -26 33 -49 50 -29 22 -57 58 -91 120 -27 49 -58 103 -68 121 l-19 31 53 36 c85 56 128 141 128 250 0 186 -136 306 -380 336 -93 11 -371 12 -410 1z m465 -98 c134 -71 193 -244 128 -374 -23 -44 -37 -58 -82 -81 -48 -25 -64 -28 -153 -28 -55 0 -108 5 -119 10 -18 10 -19 24 -19 250 0 181 3 240 13 244 6 3 53 4 102 3 68 -3 100 -8 130 -24z"/>
<path d="M4368 2670 c-24 -15 -22 -33 7 -68 14 -17 25 -42 25 -56 0 -14 -63 -186 -141 -381 -140 -354 -141 -356 -190 -397 -53 -45 -60 -62 -30 -78 25 -13 177 -13 202 0 25 14 24 26 -6 62 -14 16 -25 38 -25 49 0 33 51 149 71 159 27 15 361 13 382 -2 24 -19 57 -104 57 -149 0 -30 -5 -42 -25 -55 -28 -18 -34 -59 -9 -68 9 -3 76 -6 149 -6 108 0 137 3 149 16 19 18 11 36 -34 78 -17 15 -37 41 -46 58 -13 24 -109 266 -285 713 -21 55 -43 107 -49 115 -12 19 -175 26 -202 10z m182 -394 c39 -98 72 -188 73 -200 2 -21 -1 -21 -147 -24 -82 -1 -153 1 -158 6 -7 7 59 197 137 395 4 10 11 15 16 10 4 -4 40 -88 79 -187z"/>
<path d="M4398 1516 c-83 -34 -134 -79 -170 -150 -27 -52 -32 -75 -36 -151 -5 -106 5 -151 52 -225 83 -131 100 -171 100 -240 0 -74 -13 -105 -74 -175 -47 -54 -52 -98 -19 -152 13 -20 19 -44 16 -58 l-4 -25 278 0 279 0 0 29 c0 15 10 40 21 55 20 25 21 36 17 159 -4 113 -7 138 -27 175 -30 59 -92 125 -168 179 -60 43 -113 96 -113 113 0 5 35 9 79 9 77 0 79 0 115 -36 41 -41 83 -48 116 -18 39 35 27 74 -45 145 -44 43 -67 75 -71 96 -3 18 -19 45 -35 60 -49 47 -33 106 39 143 l36 19 -34 21 c-92 56 -251 68 -352 27z m55 -87 c-6 -57 -4 -63 18 -80 29 -23 12 -25 -19 -3 -21 15 -25 14 -57 -10 -96 -74 -128 -199 -85 -338 14 -48 15 -58 4 -43 -29 39 -47 125 -42 205 6 95 38 159 103 199 35 21 46 35 59 79 10 28 19 52 21 52 3 0 2 -28 -2 -61z m119 -39 c13 0 30 -4 37 -9 10 -6 0 -8 -29 -4 -35 5 -46 2 -58 -13 -14 -18 -14 -18 -8 -1 3 11 9 31 13 45 6 25 6 25 14 4 5 -14 17 -22 31 -22z m136 -162 c5 -24 -20 -23 -49 2 l-24 20 35 -2 c24 -2 36 -8 38 -20z m150 -172 c-3 -15 -5 -15 -22 -3 -13 9 -17 20 -12 32 6 17 8 17 22 3 9 -9 14 -23 12 -32z m-114 -227 c29 -23 69 -94 64 -111 -2 -6 -16 9 -31 34 -14 25 -38 53 -52 62 -24 16 -34 36 -16 36 4 0 20 -9 35 -21z"/>
<path d="M5405 1507 c-144 -69 -212 -211 -185 -383 12 -73 21 -93 79 -181 55 -83 73 -129 73 -193 1 -65 -24 -122 -77 -171 -31 -30 -35 -39 -35 -83 0 -31 6 -56 16 -67 9 -10 16 -34 16 -53 l0 -36 279 0 279 0 0 26 c0 15 8 41 19 58 15 25 19 52 19 134 2 183 -39 262 -192 374 -72 52 -116 98 -116 121 0 4 34 7 76 7 73 0 77 -1 110 -34 44 -44 66 -51 103 -32 63 33 54 79 -34 165 -37 36 -65 72 -65 84 0 10 -13 35 -30 54 -50 56 -36 114 37 152 l37 18 -26 17 c-55 36 -135 56 -226 56 -79 0 -95 -3 -157 -33z m72 -66 c-6 -51 -4 -63 16 -87 l22 -29 -28 18 c-32 21 -46 15 -94 -35 -73 -75 -93 -193 -54 -317 24 -78 11 -70 -20 11 -34 90 -32 194 4 264 26 52 71 98 106 109 13 4 22 23 32 65 7 33 15 60 17 60 3 0 2 -27 -1 -59z m116 -50 l32 -9 -32 -1 c-19 -1 -37 -8 -43 -18 -11 -17 -11 -17 -6 0 3 10 7 31 7 45 1 17 3 21 6 10 2 -10 19 -22 36 -27z m137 -145 c0 -2 3 -11 6 -20 9 -23 -19 -20 -47 4 l-24 19 33 1 c17 0 32 -2 32 -4z m155 -183 c3 -13 2 -23 -3 -23 -17 0 -34 29 -28 47 8 19 21 9 31 -24z m-111 -234 c31 -24 51 -60 60 -109 l7 -35 -19 40 c-11 22 -36 56 -56 74 -52 50 -46 73 8 30z"/>
<path d="M615 1494 c-38 -8 -112 -36 -164 -61 -77 -38 -110 -62 -175 -127 -93 -93 -136 -160 -180 -283 -30 -85 -31 -93 -31 -253 0 -133 4 -177 19 -225 79 -255 271 -410 553 -447 198 -27 421 44 558 177 62 61 91 116 75 145 -17 32 -37 24 -106 -39 -165 -151 -400 -185 -586 -84 -301 164 -387 710 -153 970 88 99 234 148 370 125 125 -20 211 -79 306 -209 65 -88 90 -113 116 -113 52 0 52 45 -3 264 -42 166 -68 195 -143 157 l-41 -22 -106 21 c-122 23 -210 24 -309 4z"/>
<path d="M1443 1480 c-36 -15 -28 -48 26 -105 29 -31 54 -68 60 -91 15 -54 15 -914 0 -969 -7 -27 -28 -56 -61 -87 -39 -38 -49 -53 -46 -75 4 -39 40 -45 255 -41 164 3 186 5 198 21 19 26 8 54 -36 89 -60 48 -71 89 -73 268 -1 85 0 182 3 215 6 58 7 60 41 72 42 14 544 17 604 3 21 -4 43 -15 47 -22 13 -19 11 -392 -2 -443 -8 -30 -25 -56 -60 -90 -55 -53 -61 -81 -19 -102 35 -18 375 -18 410 0 40 20 36 44 -18 101 -30 31 -55 69 -61 92 -15 54 -15 914 0 968 6 23 31 60 60 91 56 59 63 90 23 105 -14 6 -111 10 -215 10 -175 0 -190 -1 -209 -20 -25 -25 -18 -44 35 -96 55 -54 65 -96 65 -287 0 -132 -2 -157 -17 -168 -13 -11 -79 -14 -334 -14 -293 0 -320 1 -336 18 -16 16 -18 35 -15 183 3 193 12 223 77 278 53 44 60 81 19 96 -32 12 -391 12 -421 0z"/>
<path d="M2998 1483 c-10 -2 -21 -16 -25 -30 -5 -23 1 -33 46 -72 33 -29 55 -59 61 -81 6 -21 10 -228 10 -505 0 -437 -2 -473 -19 -511 -11 -24 -33 -50 -55 -63 -43 -27 -56 -65 -32 -89 15 -15 62 -17 489 -17 554 0 515 -8 540 108 22 99 30 208 18 240 -7 19 -18 27 -34 27 -30 0 -47 -19 -87 -100 -78 -158 -101 -169 -336 -170 -177 0 -227 8 -244 40 -6 11 -10 118 -10 250 l0 231 25 24 c23 24 31 25 133 25 128 0 143 -8 182 -89 16 -36 31 -53 48 -58 46 -11 52 13 52 198 0 150 -2 169 -19 190 -26 31 -47 19 -83 -47 -45 -82 -55 -86 -186 -82 -158 4 -152 -6 -152 243 0 176 2 193 19 209 47 43 316 47 407 6 60 -26 93 -56 152 -140 53 -75 59 -80 90 -80 40 0 46 34 22 139 -25 112 -56 182 -90 198 -19 10 -134 12 -465 12 -242 -1 -448 -3 -457 -6z"/>
<path d="M4171 299 c-41 -8 -101 -50 -101 -71 0 -4 214 -8 475 -8 324 0 475 3 475 10 0 19 -48 56 -88 68 -47 14 -691 15 -761 1z"/>
<path d="M5235 305 c-5 -2 -27 -6 -49 -10 -37 -6 -86 -43 -86 -65 0 -7 150 -10 470 -10 495 0 499 0 452 43 -49 44 -74 47 -434 46 -189 0 -347 -2 -353 -4z"/>
<path d="M4074 175 c-4 -8 -4 -22 0 -30 5 -13 64 -15 473 -13 l468 3 0 25 0 25 -468 3 c-409 2 -468 0 -473 -13z"/>
<path d="M5107 183 c-4 -3 -7 -17 -7 -30 l0 -23 469 0 c492 0 491 0 469 43 -8 16 -41 17 -467 17 -252 0 -461 -3 -464 -7z"/>
<path d="M4075 90 c4 -6 173 -10 476 -10 306 0 469 3 469 10 0 7 -165 10 -476 10 -314 0 -473 -3 -469 -10z"/>
<path d="M5100 90 c0 -7 163 -10 470 -10 307 0 470 3 470 10 0 7 -163 10 -470 10 -307 0 -470 -3 -470 -10z"/>
</g>
</svg>