<?xml version="1.0" standalone="no"?>
<!DOCTYPE svg PUBLIC "-//W3C//DTD SVG 20010904//EN"
 "http://www.w3.org/TR/2001/REC-SVG-20010904/DTD/svg10.dtd">
<svg version="1.0" xmlns="http://www.w3.org/2000/svg"
 width="216.000000pt" height="163.000000pt" viewBox="0 0 216.000000 163.000000"
 preserveAspectRatio="xMidYMid meet">

<g transform="translate(0.000000,163.000000) scale(0.100000,-0.100000)"
fill="#000000" stroke="none">
<path d="M848 1383 c-145 -116 -559 -490 -564 -509 -14 -57 -8 -64 385 -399
190 -161 209 -175 247 -175 74 0 111 88 62 144 -13 14 -75 68 -138 122 -122
102 -210 182 -210 189 0 3 292 5 649 5 l648 0 27 25 c36 33 36 92 0 126 l-26
24 -648 5 -648 5 175 159 c96 88 182 170 190 183 20 30 9 87 -20 108 -35 24
-89 19 -129 -12z"/>
</g>
</svg>
